<?xml version="1.0" encoding="iso-8859-1"?>
<!-- Generator: Adobe Illustrator 19.0.0, SVG Export Plug-In . SVG Version: 6.00 Build 0)  -->
<svg version="1.1" id="Layer_1" xmlns="http://www.w3.org/2000/svg" xmlns:xlink="http://www.w3.org/1999/xlink" x="0px" y="0px"
	 viewBox="0 0 512 512" style="enable-background:new 0 0 512 512;" xml:space="preserve">
<circle style="fill:#273B7A;" cx="256" cy="256" r="256"/>
<path style="fill:#121149;" d="M501.679,328.132L339.047,165.269l-201.781,97.554l10.266,10.266l-34.095,14.084l38.431,38.431
	l-6.58,2.8l21.07,21.071c0,0-0.862,6.511,3.448,12.976c4.31,6.465,8.189,17.239,3.305,27.295
	c-4.884,10.056-9.481,11.348-7.039,19.682c2.443,8.332,8.476,18.101,8.189,21.98c-0.288,3.879-1.007,3.879-1.007,3.879
	l76.636,76.636c2.032,0.048,4.068,0.078,6.111,0.078C372.336,512,470.531,434.393,501.679,328.132z"/>
<path style="fill:#FFFFFF;" d="M178.424,435.286h-5.172c0-6.272-2.169-9.252-4.677-12.703c-2.657-3.651-5.666-7.792-5.666-15.743
	c0-7.952,3.01-12.093,5.666-15.744c2.51-3.451,4.677-6.432,4.677-12.703c0-6.27-2.167-9.249-4.677-12.698
	c-2.657-3.653-5.666-7.792-5.666-15.744c0-7.951,3.01-12.09,5.666-15.743c2.51-3.45,4.677-6.428,4.677-12.698h5.172
	c0,7.951-3.01,12.09-5.666,15.743c-2.51,3.45-4.677,6.428-4.677,12.698c0,6.272,2.169,9.25,4.677,12.702
	c2.657,3.651,5.666,7.79,5.666,15.741c0,7.952-3.01,12.093-5.666,15.744c-2.51,3.451-4.677,6.432-4.677,12.703
	c0,6.27,2.167,9.25,4.677,12.702C175.414,423.193,178.424,427.334,178.424,435.286z"/>
<polygon style="fill:#FF6262;" points="145.286,328.404 170.667,284.444 196.046,328.404 "/>
<g>
	<polygon style="fill:#FF314F;" points="170.667,284.444 169.805,285.936 169.805,328.404 196.046,328.404 	"/>
	<ellipse style="fill:#FF314F;" cx="170.667" cy="213.333" rx="85.333" ry="99.556"/>
</g>
<path style="fill:#A30F44;" d="M170.667,113.778c-0.29,0-0.574,0.022-0.862,0.026v199.061c0.288,0.003,0.572,0.026,0.862,0.026
	c47.128,0,85.333-44.573,85.333-99.556C256,158.351,217.795,113.778,170.667,113.778z"/>
<path style="fill:#FFFFFF;" d="M292.202,463.731h-5.172c0-6.272-2.169-9.252-4.677-12.703c-2.657-3.651-5.666-7.792-5.666-15.743
	c0-7.952,3.01-12.093,5.666-15.744c2.51-3.451,4.677-6.432,4.677-12.703c0-6.27-2.167-9.249-4.677-12.698
	c-2.657-3.653-5.666-7.792-5.666-15.744c0-7.951,3.01-12.09,5.666-15.743c2.51-3.45,4.677-6.428,4.677-12.698h5.172
	c0,7.951-3.01,12.09-5.666,15.743c-2.51,3.45-4.677,6.428-4.677,12.698c0,6.272,2.169,9.25,4.677,12.702
	c2.657,3.651,5.666,7.79,5.666,15.741c0,7.952-3.01,12.093-5.666,15.744c-2.51,3.451-4.677,6.432-4.677,12.703
	c0,6.27,2.167,9.25,4.677,12.702C289.192,451.637,292.202,455.778,292.202,463.731z"/>
<polygon style="fill:#FF6262;" points="259.063,356.848 284.444,312.889 309.824,356.848 "/>
<ellipse style="fill:#FFAD9E;" cx="284.444" cy="241.778" rx="85.333" ry="99.556"/>
<polygon style="fill:#FF314F;" points="284.444,312.889 283.583,314.38 283.583,356.848 309.824,356.848 "/>
<path style="fill:#FF6262;" d="M284.444,142.222c-0.29,0-0.574,0.022-0.862,0.026v199.061c0.288,0.003,0.572,0.026,0.862,0.026
	c47.128,0,85.333-44.573,85.333-99.556C369.778,186.796,331.573,142.222,284.444,142.222z"/>
<g>
</g>
<g>
</g>
<g>
</g>
<g>
</g>
<g>
</g>
<g>
</g>
<g>
</g>
<g>
</g>
<g>
</g>
<g>
</g>
<g>
</g>
<g>
</g>
<g>
</g>
<g>
</g>
<g>
</g>
</svg>
