<?xml version="1.0" encoding="iso-8859-1"?>
<!-- Generator: Adobe Illustrator 19.0.0, SVG Export Plug-In . SVG Version: 6.00 Build 0)  -->
<svg version="1.1" id="Layer_1" xmlns="http://www.w3.org/2000/svg" xmlns:xlink="http://www.w3.org/1999/xlink" x="0px" y="0px"
	 viewBox="0 0 512 512" style="enable-background:new 0 0 512 512;" xml:space="preserve">
<circle style="fill:#273B7A;" cx="256" cy="256" r="256"/>
<path style="fill:#121149;" d="M231.805,140.728l97.459,97.459L113.778,387.089l124.276,124.276
	c5.93,0.41,11.912,0.634,17.946,0.634c125.216,0,229.417-89.903,251.618-208.679L294.645,90.346l-33.92,11.064l-11.064-11.064
	L231.805,140.728z"/>
<path style="fill:#FF6262;" d="M211.178,105.948c0-15.507,10.033-22.411,22.411-22.411S256,93.57,256,105.948
	c0-12.378,10.033-22.411,22.411-22.411s22.411,9.621,22.411,22.411c0,31.353-44.822,48.557-44.822,48.557
	S211.178,137.528,211.178,105.948z"/>
<path style="fill:#FF314F;" d="M256,105.948c0-12.378,10.033-22.411,22.411-22.411s22.411,9.621,22.411,22.411
	c0,31.353-44.822,48.557-44.822,48.557V105.948z"/>
<path style="fill:#FF6262;" d="M383.569,357.409H128.431v-137.48c0-16.012,12.981-28.993,28.993-28.993h197.153
	c16.012,0,28.993,12.981,28.993,28.993V357.409z"/>
<path style="fill:#FF314F;" d="M383.569,219.929c0-16.012-12.981-28.993-28.993-28.993H256v166.472h127.569V219.929z"/>
<path style="fill:#FFFFFF;" d="M224.682,330.2h-51.143c-9.442,0-17.094-7.654-17.094-17.096v-22.699
	c0-9.442,7.654-17.096,17.094-17.096h51.143c9.442,0,17.096,7.654,17.096,17.096v22.699
	C241.778,322.546,234.124,330.2,224.682,330.2z"/>
<path style="fill:#D0D1D3;" d="M338.46,330.2h-51.143c-9.442,0-17.096-7.654-17.096-17.096v-22.699
	c0-9.442,7.654-17.096,17.096-17.096h51.143c9.442,0,17.096,7.654,17.096,17.096v22.699C355.556,322.546,347.901,330.2,338.46,330.2
	z"/>
<path style="fill:#FFAD9E;" d="M398.222,387.089H113.778v-53.01c0-17.851,14.472-32.323,32.323-32.323h219.798
	c17.851,0,32.323,14.472,32.323,32.323V387.089z"/>
<path style="fill:#FF6262;" d="M398.222,334.079c0-17.851-14.472-32.323-32.323-32.323H256v85.333h142.222V334.079z"/>
<g>
</g>
<g>
</g>
<g>
</g>
<g>
</g>
<g>
</g>
<g>
</g>
<g>
</g>
<g>
</g>
<g>
</g>
<g>
</g>
<g>
</g>
<g>
</g>
<g>
</g>
<g>
</g>
<g>
</g>
</svg>
