<?xml version="1.0" encoding="iso-8859-1"?>
<!-- Generator: Adobe Illustrator 19.0.0, SVG Export Plug-In . SVG Version: 6.00 Build 0)  -->
<svg version="1.1" id="Layer_1" xmlns="http://www.w3.org/2000/svg" xmlns:xlink="http://www.w3.org/1999/xlink" x="0px" y="0px"
	 viewBox="0 0 512 512" style="enable-background:new 0 0 512 512;" xml:space="preserve">
<circle style="fill:#FFEDB5;" cx="256" cy="256" r="256"/>
<path style="fill:#FEE187;" d="M238.216,184.634l-56.332-56.954l-12.322,24.436l-5.417,12.948L150.7,202.992l-3.881,3.92
	l-38.84,18.699l115.234,114.947l-36.133,25.372l63.419,62.914l-1.719,1.564l73.035,73.035
	c108.928-28.9,189.34-127.802,190.159-245.629L404.018,149.856l-7.271,1.526l-23.157-23.783l-13.802,15.672l-12.264-2.927
	l-33.285-33.285l-5.044,4.784l-28.77-29.577L260.63,101.6L238.216,184.634z"/>
<g>
	<path style="fill:#6CAF5F;" d="M255.988,408.176c-4.82,0-8.944-3.658-9.425-8.556c-12.286-125.304-72.347-171.872-72.951-172.328
		c-4.172-3.141-5.034-9.076-1.907-13.259c3.125-4.182,9.03-5.067,13.226-1.955c2.743,2.032,67.331,51.317,80.505,185.69
		c0.512,5.211-3.3,9.852-8.511,10.362C256.612,408.162,256.298,408.176,255.988,408.176z"/>
	<path style="fill:#6CAF5F;" d="M256.012,408.176c-0.31,0-0.622-0.016-0.938-0.045c-5.21-0.51-9.021-5.149-8.511-10.362
		c13.176-134.373,77.762-183.658,80.505-185.691c4.203-3.117,10.143-2.236,13.262,1.974c3.112,4.199,2.239,10.118-1.945,13.241l0,0
		c-0.605,0.457-60.664,47.025-72.951,172.329C264.956,404.516,260.832,408.176,256.012,408.176z"/>
</g>
<path style="fill:#477F3C;" d="M256,433.748c-5.236,0-9.481-4.246-9.481-9.482V194.126c0-5.236,4.246-9.481,9.481-9.481
	c5.236,0,9.481,4.246,9.481,9.481v230.141C265.481,429.504,261.236,433.748,256,433.748z"/>
<path style="fill:#2E5E24;" d="M256.288,184.66v249.075c5.101-0.153,9.194-4.329,9.194-9.468V194.126
	C265.481,188.988,261.389,184.813,256.288,184.66z"/>
<path style="fill:#FF314F;" d="M179.286,347.553c0-14.122,11.448-51.143,25.571-51.143S256,333.429,256,347.553
	c0,14.122-37.019,25.571-51.143,25.571S179.286,361.675,179.286,347.553z"/>
<path style="fill:#A30F44;" d="M332.714,347.553c0-14.122-11.448-51.143-25.571-51.143c-14.122,0-51.143,37.019-51.143,51.143
	c0,14.122,37.019,25.571,51.143,25.571C321.265,373.124,332.714,361.675,332.714,347.553z"/>
<path style="fill:#FFC61B;" d="M95.677,187.733c0-6.206,14.438-10.054,16.255-15.655c1.884-5.804-7.466-17.391-3.951-22.223
	c3.551-4.88,17.484,0.453,22.364-3.098c4.832-3.517,4.044-18.432,9.849-20.316c5.601-1.819,13.707,10.652,19.915,10.652
	c6.206,0,14.314-12.471,19.915-10.652c5.804,1.884,5.017,16.801,9.849,20.318c4.88,3.551,18.813-1.783,22.364,3.098
	c3.517,4.832-5.835,16.418-3.951,22.223c1.819,5.601,16.255,9.449,16.255,15.655c0,6.206-14.438,10.054-16.255,15.655
	c-1.884,5.804,7.466,17.391,3.951,22.223c-3.551,4.88-17.484-0.453-22.364,3.098c-4.832,3.517-4.044,18.432-9.849,20.316
	c-5.601,1.819-13.707-10.652-19.915-10.652c-6.206,0-14.314,12.471-19.915,10.652c-5.804-1.884-5.017-16.801-9.849-20.318
	c-4.88-3.551-18.813,1.783-22.364-3.098c-3.517-4.832,5.835-16.418,3.951-22.223C110.114,197.787,95.677,193.939,95.677,187.733z"/>
<path style="fill:#EAA22F;" d="M224.539,187.733c0-6.208-14.438-10.056-16.255-15.655c-1.884-5.804,7.468-17.391,3.951-22.223
	c-3.551-4.88-17.484,0.453-22.364-3.098c-4.83-3.517-4.044-18.432-9.849-20.318c-5.601-1.819-13.707,10.652-19.915,10.652
	s-14.314-12.471-19.915-10.652c-5.804,1.884-5.017,16.801-9.849,20.316c-0.007,0.005-0.016,0.007-0.022,0.012l60.145,81.605
	c5.317-2.815,18.344,1.936,21.764-2.763c3.517-4.83-5.835-16.418-3.951-22.223C210.101,197.787,224.539,193.939,224.539,187.733z"/>
<circle style="fill:#D35933;" cx="160.099" cy="187.733" r="19.178"/>
<path style="fill:#B54324;" d="M179.286,187.733c0-10.592-8.587-19.178-19.178-19.178c-4.143,0-7.968,1.327-11.104,3.56
	l22.733,30.844C176.318,199.452,179.286,193.946,179.286,187.733z"/>
<path style="fill:#FF314F;" d="M287.461,187.733c0-6.206,14.438-10.054,16.255-15.655c1.884-5.804-7.466-17.391-3.951-22.223
	c3.551-4.88,17.484,0.453,22.364-3.098c4.832-3.517,4.044-18.432,9.849-20.316c5.601-1.819,13.707,10.652,19.915,10.652
	c6.206,0,14.314-12.471,19.915-10.652c5.804,1.884,5.017,16.801,9.849,20.318c4.88,3.551,18.813-1.783,22.364,3.098
	c3.517,4.832-5.835,16.418-3.951,22.223c1.819,5.601,16.255,9.449,16.255,15.655c0,6.206-14.438,10.054-16.255,15.655
	c-1.884,5.804,7.466,17.391,3.951,22.223c-3.551,4.88-17.484-0.453-22.364,3.098c-4.832,3.517-4.044,18.432-9.849,20.316
	c-5.601,1.819-13.707-10.652-19.915-10.652c-6.206,0-14.314,12.471-19.915,10.652c-5.804-1.884-5.017-16.801-9.849-20.318
	c-4.88-3.551-18.813,1.783-22.364-3.098c-3.517-4.832,5.835-16.418,3.951-22.223C301.899,197.787,287.461,193.939,287.461,187.733z"
	/>
<path style="fill:#A30F44;" d="M416.323,187.733c0-6.208-14.438-10.056-16.255-15.655c-1.884-5.804,7.468-17.391,3.951-22.223
	c-3.524-4.842-17.263,0.362-22.242-3.029l-60.161,81.598c0.171,0.095,0.359,0.174,0.512,0.286c4.83,3.517,4.044,18.432,9.849,20.318
	c5.601,1.819,13.707-10.652,19.915-10.652c6.208,0,14.314,12.471,19.915,10.652c5.804-1.884,5.017-16.801,9.849-20.316
	c4.88-3.551,18.813,1.783,22.364-3.098c3.517-4.83-5.835-16.418-3.951-22.223C401.885,197.787,416.323,193.939,416.323,187.733z"/>
<circle style="fill:#FFAD9E;" cx="351.884" cy="187.733" r="19.178"/>
<path style="fill:#FF6262;" d="M363.084,172.18l-22.738,30.841c3.215,2.431,7.204,3.891,11.547,3.891
	c10.592,0,19.178-8.587,19.178-19.178C371.071,181.322,367.914,175.663,363.084,172.18z"/>
<path style="fill:#D35933;" d="M184.013,149.376c0-7.021,14.565-11.654,16.624-17.991c2.132-6.566-6.854-18.863-2.875-24.328
	c4.018-5.52,18.515-0.752,24.036-4.77c5.467-3.977,5.387-19.259,11.954-21.392c6.335-2.057,15.227,10.285,22.25,10.285
	c7.021,0,15.913-12.341,22.25-10.285c6.566,2.132,6.489,17.413,11.954,21.392c5.52,4.018,20.018-0.752,24.036,4.77
	c3.977,5.466-5.008,17.761-2.877,24.328c2.057,6.335,16.624,10.969,16.624,17.991c0,7.021-14.565,11.654-16.624,17.991
	c-2.132,6.566,6.854,18.863,2.875,24.328c-4.018,5.52-18.515,0.752-24.036,4.77c-5.467,3.977-5.387,19.259-11.954,21.392
	c-6.335,2.057-15.227-10.285-22.25-10.285c-7.021,0-15.913,12.341-22.25,10.285c-6.566-2.132-6.489-17.413-11.954-21.392
	c-5.52-4.018-20.018,0.752-24.036-4.77c-3.977-5.466,5.008-17.761,2.877-24.328C198.58,161.03,184.013,156.398,184.013,149.376z"/>
<path style="fill:#B54324;" d="M327.987,149.376c0-7.021-14.565-11.654-16.624-17.991c-2.132-6.566,6.854-18.863,2.877-24.328
	c-4.018-5.52-18.515-0.752-24.036-4.77c-5.467-3.979-5.387-19.259-11.954-21.392c-6.251-2.029-14.986,9.931-21.963,10.256v116.45
	c6.977,0.324,15.712,12.285,21.963,10.256c6.566-2.132,6.489-17.413,11.954-21.392c5.52-4.018,20.018,0.752,24.036-4.77
	c3.977-5.466-5.008-17.761-2.875-24.329C313.42,161.03,327.987,156.398,327.987,149.376z"/>
<circle style="fill:#FFC61B;" cx="256" cy="149.376" r="21.697"/>
<path style="fill:#EAA22F;" d="M277.697,149.376c0-11.886-9.561-21.526-21.409-21.682v43.365
	C268.136,170.903,277.697,161.261,277.697,149.376z"/>
<circle style="fill:#A30F44;" cx="256" cy="347.557" r="25.571"/>
<path style="fill:#770A36;" d="M256,321.982c14.122,0,25.571,11.448,25.571,25.571c0,14.122-11.448,25.571-25.571,25.571V321.982z"
	/>
<g>
</g>
<g>
</g>
<g>
</g>
<g>
</g>
<g>
</g>
<g>
</g>
<g>
</g>
<g>
</g>
<g>
</g>
<g>
</g>
<g>
</g>
<g>
</g>
<g>
</g>
<g>
</g>
<g>
</g>
</svg>
