<?xml version="1.0" encoding="iso-8859-1"?>
<!-- Generator: Adobe Illustrator 19.0.0, SVG Export Plug-In . SVG Version: 6.00 Build 0)  -->
<svg version="1.1" id="Layer_1" xmlns="http://www.w3.org/2000/svg" xmlns:xlink="http://www.w3.org/1999/xlink" x="0px" y="0px"
	 viewBox="0 0 512 512" style="enable-background:new 0 0 512 512;" xml:space="preserve">
<circle style="fill:#FEE187;" cx="256" cy="256" r="256"/>
<path style="fill:#FFC61B;" d="M301.525,507.961c104.893-18.827,187.611-101.545,206.438-206.438l-67.074-67.072l-2.482,5.734
	l-49.724-49.724l-52.807,57.494l-8.494,5.62L71.111,277.549L301.525,507.961z"/>
<rect x="71.111" y="234.451" style="fill:#FF6262;" width="184.32" height="43.098"/>
<rect x="255.431" y="234.451" style="fill:#FF314F;" width="185.458" height="43.098"/>
<g>
	<path style="fill:#A30F44;" d="M248.404,243.71l-110.083-55.041c-9.135-4.568-19.885,2.076-19.885,12.29v110.083
		c0,10.214,10.749,16.858,19.885,12.29l110.083-55.041C258.532,263.227,258.532,248.773,248.404,243.71z"/>
	<path style="fill:#A30F44;" d="M263.596,243.71l110.083-55.041c9.135-4.568,19.885,2.076,19.885,12.29v110.083
		c0,10.214-10.749,16.858-19.885,12.29l-110.083-55.041C253.468,263.227,253.468,248.773,263.596,243.71z"/>
</g>
<path style="fill:#FF6262;" d="M233.755,294.636h44.492c9.052,0,16.391-7.339,16.391-16.391v-44.492
	c0-9.052-7.339-16.391-16.391-16.391h-44.492c-9.052,0-16.391,7.339-16.391,16.391v44.492
	C217.364,287.297,224.702,294.636,233.755,294.636z"/>
<path style="fill:#FF314F;" d="M278.245,217.364h-22.819v77.272h22.819c9.052,0,16.391-7.339,16.391-16.391v-44.492
	C294.636,224.701,287.297,217.364,278.245,217.364z"/>
<g>
</g>
<g>
</g>
<g>
</g>
<g>
</g>
<g>
</g>
<g>
</g>
<g>
</g>
<g>
</g>
<g>
</g>
<g>
</g>
<g>
</g>
<g>
</g>
<g>
</g>
<g>
</g>
<g>
</g>
</svg>
