<?xml version="1.0" encoding="iso-8859-1"?>
<!-- Generator: Adobe Illustrator 19.0.0, SVG Export Plug-In . SVG Version: 6.00 Build 0)  -->
<svg version="1.1" id="Layer_1" xmlns="http://www.w3.org/2000/svg" xmlns:xlink="http://www.w3.org/1999/xlink" x="0px" y="0px"
	 viewBox="0 0 512 512" style="enable-background:new 0 0 512 512;" xml:space="preserve">
<circle style="fill:#273B7A;" cx="256" cy="256" r="256"/>
<path style="fill:#121149;" d="M168.151,169.741l22.111,22.111L154.04,412.782l99.183,99.183c0.926,0.01,1.85,0.034,2.777,0.034
	c115.398,0,212.949-76.36,244.915-181.303L333.395,163.176l-14.677,44.439l-113.64-113.64L168.151,169.741z"/>
<rect x="284.444" y="259.413" style="fill:#FFAD9E;" width="72.059" height="153.376"/>
<rect x="320.94" y="259.413" style="fill:#FF6262;" width="35.569" height="153.376"/>
<rect x="284.444" y="259.413" style="fill:#FFAD9E;" width="36.495" height="153.376"/>
<g>
	<path style="fill:#FFC61B;" d="M289.54,208.458c24.557-43.66,18.923-66.236,18.923-66.236s49.011,30.813,49.495,72.059
		c0.247,20.902-37.85,45.128-37.85,45.128S276.439,231.752,289.54,208.458z"/>
	<path style="fill:#FFC61B;" d="M308.464,142.222c0,0,5.634,22.576-18.925,66.236c-13.102,23.292,30.57,50.952,30.57,50.952
		s0.302-0.193,0.824-0.538V151.533C313.79,145.58,308.464,142.222,308.464,142.222z"/>
</g>
<path style="fill:#EAA22F;" d="M357.96,214.281c-0.326-27.665-22.469-50.621-37.026-62.748v107.339
	C326.437,255.228,358.184,233.374,357.96,214.281z"/>
<g>
	<path style="fill:#E09112;" d="M302.199,219.719c15.132-26.905,17.911-40.815,17.911-40.815s23.95,18.987,24.25,44.404
		c0.152,12.879-23.323,27.808-23.323,27.808S294.126,234.072,302.199,219.719z"/>
	<path style="fill:#E09112;" d="M320.11,178.903c0,0-2.779,13.912-17.911,40.815c-7.792,13.853,16.999,30.208,18.735,31.33v-71.458
		C320.415,179.148,320.11,178.903,320.11,178.903z"/>
</g>
<path style="fill:#FF5419;" d="M320.934,179.593v71.458c0.062,0.04,0.102,0.065,0.102,0.065s23.474-14.927,23.323-27.808
	C344.095,200.695,325.12,183.184,320.934,179.593z"/>
<rect x="154.048" y="187.957" style="fill:#FF314F;" width="72.059" height="224.815"/>
<rect x="188.199" y="187.957" style="fill:#A30F44;" width="37.905" height="224.815"/>
<path style="fill:#FFC61B;" d="M159.134,137.011c24.559-43.661,18.925-66.236,18.925-66.236s49.011,30.813,49.495,72.059
	c0.247,20.902-37.85,45.128-37.85,45.128S146.032,160.303,159.134,137.011z"/>
<path style="fill:#EAA22F;" d="M188.194,78.176v108.784c0.946,0.643,1.512,1.003,1.512,1.003s38.095-24.226,37.85-45.128
	C227.211,113.64,202.573,89.69,188.194,78.176z"/>
<path style="fill:#E09112;" d="M171.794,148.271c15.132-26.905,17.911-40.815,17.911-40.815s23.95,18.987,24.25,44.404
	c0.152,12.879-23.323,27.808-23.323,27.808S163.721,162.623,171.794,148.271z"/>
<path style="fill:#FF5419;" d="M189.705,107.456c0,0-0.369,1.805-1.512,5.306v65.234c1.488,1.072,2.438,1.672,2.438,1.672
	s23.474-14.929,23.323-27.808C213.656,126.443,189.705,107.456,189.705,107.456z"/>
<g>
</g>
<g>
</g>
<g>
</g>
<g>
</g>
<g>
</g>
<g>
</g>
<g>
</g>
<g>
</g>
<g>
</g>
<g>
</g>
<g>
</g>
<g>
</g>
<g>
</g>
<g>
</g>
<g>
</g>
</svg>
