<?xml version="1.0" encoding="iso-8859-1"?>
<!-- Generator: Adobe Illustrator 19.0.0, SVG Export Plug-In . SVG Version: 6.00 Build 0)  -->
<svg version="1.1" id="Layer_1" xmlns="http://www.w3.org/2000/svg" xmlns:xlink="http://www.w3.org/1999/xlink" x="0px" y="0px"
	 viewBox="0 0 512 512" style="enable-background:new 0 0 512 512;" xml:space="preserve">
<circle style="fill:#FEE187;" cx="256" cy="256" r="256"/>
<path style="fill:#FFC61B;" d="M503.858,320.281L354.547,170.97l-18.849,31.544L217.409,84.047l-6.27,33.787l-0.569-1.424
	l-70.842,286.817l109.277,108.675c2.326,0.062,4.656,0.098,6.997,0.098C375.184,512,475.341,430.552,503.858,320.281z"/>
<path style="fill:#FFFFFF;" d="M354.44,274.56l0.107-103.589l-69.06-0.071l-0.107,103.589c-0.017,17.17,12.502,31.42,28.915,34.104
	l-0.093,90.443l-23.019-0.024c-3.082-0.003-5.584,2.493-5.587,5.575l0,0c-0.003,3.082,2.493,5.584,5.575,5.587l57.201,0.059
	c3.082,0.003,5.584-2.493,5.585-5.575l0,0c0.003-3.082-2.493-5.584-5.575-5.587l-23.019-0.024l0.093-90.443
	C341.875,305.954,354.423,291.73,354.44,274.56z"/>
<path style="fill:#D0D1D3;" d="M354.44,274.56l0.107-103.589l-34.475-0.036v239.269l28.3,0.029c3.082,0.003,5.584-2.493,5.585-5.575
	c0.003-3.082-2.493-5.584-5.575-5.587l-23.019-0.024l0.093-90.443C341.875,305.954,354.423,291.73,354.44,274.56z"/>
<path style="fill:#6CAF5F;" d="M216.128,195.586V87.097h-42.653v108.489l-29.305,44.977c-6.896,10.585-10.568,22.947-10.568,35.58
	v112c0,11.95,9.687,21.637,21.637,21.637h79.126c11.95,0,21.637-9.687,21.637-21.637v-112c0-12.633-3.672-24.995-10.568-35.58
	L216.128,195.586z"/>
<g>
	<path style="fill:#477F3C;" d="M245.432,240.562l-29.305-44.978V87.097h-21.039v322.684h39.274c11.95,0,21.637-9.687,21.637-21.637
		v-112C256,263.509,252.328,251.149,245.432,240.562z"/>
	<rect x="152.135" y="287.392" style="fill:#477F3C;" width="85.333" height="82.394"/>
</g>
<rect x="195.094" y="287.392" style="fill:#2E5E24;" width="42.379" height="82.394"/>
<polygon style="fill:#EAA22F;" points="194.801,256.784 231.857,219.727 216.128,195.586 216.128,179.509 194.801,200.835 
	173.475,179.509 173.475,195.586 157.746,219.727 "/>
<polygon style="fill:#E09112;" points="216.128,195.586 216.128,179.509 195.089,200.547 195.089,256.496 231.857,219.727 "/>
<path style="fill:#477F3C;" d="M211.401,129.75h-33.197c-4.66,0-8.437-3.777-8.437-8.437V89.971c0-4.66,3.777-8.437,8.437-8.437
	h33.197c4.66,0,8.437,3.777,8.437,8.437v31.342C219.838,125.973,216.061,129.75,211.401,129.75z"/>
<path style="fill:#2E5E24;" d="M211.399,81.532h-16.31v48.218h16.31c4.66,0,8.437-3.777,8.437-8.437V89.971
	C219.838,85.311,216.061,81.532,211.399,81.532z"/>
<path style="fill:#FFC61B;" d="M346.445,229.505h-52.996l-0.043,42.549c-0.016,14.639,11.84,26.521,26.481,26.536
	c14.639,0.016,26.521-11.841,26.534-26.481L346.445,229.505z"/>
<path style="fill:#EAA22F;" d="M320.072,229.505v69.075c14.553-0.086,26.334-11.895,26.348-26.472l0.024-42.605h-26.372V229.505z"/>
<g>
</g>
<g>
</g>
<g>
</g>
<g>
</g>
<g>
</g>
<g>
</g>
<g>
</g>
<g>
</g>
<g>
</g>
<g>
</g>
<g>
</g>
<g>
</g>
<g>
</g>
<g>
</g>
<g>
</g>
</svg>
