<?xml version="1.0" encoding="iso-8859-1"?>
<!-- Generator: Adobe Illustrator 19.0.0, SVG Export Plug-In . SVG Version: 6.00 Build 0)  -->
<svg version="1.1" id="Layer_1" xmlns="http://www.w3.org/2000/svg" xmlns:xlink="http://www.w3.org/1999/xlink" x="0px" y="0px"
	 viewBox="0 0 512 512" style="enable-background:new 0 0 512 512;" xml:space="preserve">
<circle style="fill:#FFEDB5;" cx="256" cy="256" r="256"/>
<g>
	<path style="fill:#FEE187;" d="M283.472,510.53c111.888-11.94,202.218-95.956,223.67-204.721L362.327,160.994l-64.664,60.528
		l-3.034,5.872l-131.513,162.78L283.472,510.53z"/>
	<path style="fill:#FEE187;" d="M385.098,116.703L352.127,83.73l-3.898,12.283l-1.619,2.282l-7.93,19.235l171.322,170.546
		c1.314-10.509,1.996-21.213,1.996-32.077c0-10.081-0.602-20.02-1.736-29.796l-115.94-115.94L385.098,116.703z"/>
</g>
<path style="fill:#6CAF5F;" d="M290.987,238.502l70.794-70.794l-27.832-27.832l-70.794,70.794l-48.473,10.228
	c-11.407,2.407-21.869,8.078-30.113,16.322l-73.085,73.085c-7.797,7.797-7.797,20.44,0,28.238l51.633,51.633
	c7.797,7.797,20.44,7.797,28.238,0l73.085-73.085c8.244-8.244,13.914-18.706,16.322-30.113L290.987,238.502z"/>
<g>
	<path style="fill:#477F3C;" d="M137.875,364.932l25.241,25.241c7.797,7.797,20.44,7.797,28.238,0l73.085-73.085
		c8.244-8.244,13.914-18.706,16.322-30.113l10.228-48.473l70.794-70.792l-13.341-13.341L137.875,364.932z"/>
	
		<rect x="150.911" y="273.351" transform="matrix(-0.7071 -0.7071 0.7071 -0.7071 104.6629 666.0952)" style="fill:#477F3C;" width="78.747" height="76.041"/>
</g>
<rect x="185.216" y="287.564" transform="matrix(0.7071 0.7071 -0.7071 0.7071 290.1185 -49.2387)" style="fill:#2E5E24;" width="38.56" height="76.041"/>
<polygon style="fill:#FFC61B;" points="237.135,264.521 285.498,264.521 290.987,238.502 301.478,228.012 273.644,228.012 
	273.644,200.178 263.154,210.67 237.135,216.159 "/>
<polygon style="fill:#EAA22F;" points="238.285,264.521 285.498,264.521 290.987,238.502 301.478,228.012 274.794,228.012 "/>
<path style="fill:#477F3C;" d="M330.862,192.457L309.2,170.794c-3.041-3.041-3.041-7.971,0-11.011l20.452-20.452
	c3.041-3.041,7.971-3.041,11.011,0l21.663,21.663c3.041,3.041,3.041,7.971,0,11.011l-20.452,20.452
	C338.832,195.498,333.903,195.498,330.862,192.457z"/>
<path style="fill:#2E5E24;" d="M352.07,150.737L320.607,182.2l10.256,10.256c3.041,3.041,7.971,3.041,11.011,0l20.452-20.452
	c3.041-3.041,3.041-7.971,0-11.011L352.07,150.737z"/>
<path style="fill:#EAA22F;" d="M371.269,137.838c-1.096,0-2.193-0.415-3.034-1.25c-1.689-1.676-1.703-4.405-0.028-6.094
	l20.021-20.204c1.674-1.689,4.405-1.703,6.094-0.028c1.689,1.676,1.703,4.405,0.028,6.094l-20.021,20.204
	C373.488,137.413,372.379,137.838,371.269,137.838z"/>
<g>
	<path style="fill:#E09112;" d="M368.235,136.589c0.84,0.833,1.938,1.25,3.034,1.25c1.11,0,2.219-0.426,3.06-1.276l20.021-20.204
		c1.677-1.689,1.664-4.418-0.028-6.094L368.235,136.589z"/>
	<path style="fill:#E09112;" d="M390.644,167.271c-1.867,0-3.586-1.222-4.136-3.105c-0.665-2.284,0.646-4.679,2.931-5.346
		l27.307-7.964c2.284-0.664,4.677,0.646,5.346,2.931c0.665,2.284-0.646,4.679-2.931,5.346l-27.307,7.964
		C391.449,167.214,391.042,167.271,390.644,167.271z"/>
</g>
<path style="fill:#EAA22F;" d="M341.664,118.732c-0.388,0-0.779-0.053-1.171-0.164c-2.291-0.645-3.627-3.027-2.981-5.317
	l7.716-27.377c0.645-2.293,3.029-3.627,5.317-2.981c2.291,0.645,3.627,3.027,2.981,5.317l-7.716,27.377
	C345.276,117.489,343.547,118.732,341.664,118.732z"/>
<g>
</g>
<g>
</g>
<g>
</g>
<g>
</g>
<g>
</g>
<g>
</g>
<g>
</g>
<g>
</g>
<g>
</g>
<g>
</g>
<g>
</g>
<g>
</g>
<g>
</g>
<g>
</g>
<g>
</g>
</svg>
