<?xml version="1.0" encoding="iso-8859-1"?>
<!-- Generator: Adobe Illustrator 19.0.0, SVG Export Plug-In . SVG Version: 6.00 Build 0)  -->
<svg version="1.1" id="Layer_1" xmlns="http://www.w3.org/2000/svg" xmlns:xlink="http://www.w3.org/1999/xlink" x="0px" y="0px"
	 viewBox="0 0 512 512" style="enable-background:new 0 0 512 512;" xml:space="preserve">
<circle style="fill:#386895;" cx="256" cy="256" r="256"/>
<path style="fill:#273B7A;" d="M295.977,508.887C413.803,490.408,504.96,391.568,511.6,270.212L389.992,148.604l-82.008,121.454
	l-29.574-29.574L119.92,332.829L295.977,508.887z"/>
<path style="fill:#B2F9F9;" d="M373.369,142.222H138.631c-13.727,0-24.854,11.126-24.854,24.854v149.406
	c0,13.724,11.126,24.852,24.854,24.852h71.252l46.118,46.118l46.116-46.118h71.252c13.726,0,24.854-11.128,24.854-24.854V167.076
	C398.222,153.348,387.096,142.222,373.369,142.222z"/>
<path style="fill:#92EFF4;" d="M373.369,142.222H255.855v245.086l0.143,0.143l46.12-46.118h71.252
	c13.726,0,24.854-11.128,24.854-24.854V167.076C398.222,153.348,387.096,142.222,373.369,142.222z"/>
<path style="fill:#FF314F;" d="M191.354,228.526c0-22.364,14.472-32.323,32.323-32.323S256,210.675,256,228.526
	c0-17.851,14.472-32.323,32.323-32.323c17.851,0,32.323,13.876,32.323,32.323c0,45.22-64.646,70.034-64.646,70.034
	S191.354,274.072,191.354,228.526z"/>
<path style="fill:#A30F44;" d="M256,228.526c0-17.851,14.472-32.323,32.323-32.323c17.851,0,32.323,13.876,32.323,32.323
	c0,45.22-64.646,70.034-64.646,70.034V228.526z"/>
<g>
</g>
<g>
</g>
<g>
</g>
<g>
</g>
<g>
</g>
<g>
</g>
<g>
</g>
<g>
</g>
<g>
</g>
<g>
</g>
<g>
</g>
<g>
</g>
<g>
</g>
<g>
</g>
<g>
</g>
</svg>
