<?xml version="1.0" encoding="iso-8859-1"?>
<!-- Generator: Adobe Illustrator 19.0.0, SVG Export Plug-In . SVG Version: 6.00 Build 0)  -->
<svg version="1.1" id="Layer_1" xmlns="http://www.w3.org/2000/svg" xmlns:xlink="http://www.w3.org/1999/xlink" x="0px" y="0px"
	 viewBox="0 0 512 512" style="enable-background:new 0 0 512 512;" xml:space="preserve">
<circle style="fill:#FFEDB5;" cx="256" cy="256" r="256"/>
<path style="fill:#FEE187;" d="M162.335,305.419l-19.44,27.748l28.17,28.17L156.467,432.7l78.427,78.427
	C241.855,511.697,248.892,512,256,512c130.001,0,237.361-96.906,253.807-222.422L262.896,42.667l-4.129,14.977l-1.043,1.831
	l-21.549,11.636l18.946,18.946l-8.175,57.844l0.155,0.157l-65.751,19.599l62.392,62.392L162.335,305.419z"/>
<polygon style="fill:#59595B;" points="275.825,57.32 262.896,57.32 262.896,42.667 249.104,42.667 249.104,57.32 236.175,57.32 
	236.175,71.111 249.104,71.111 249.104,128 262.896,128 262.896,71.111 275.825,71.111 "/>
<polygon style="fill:#272525;" points="262.896,57.32 262.896,42.667 256,42.667 256,128 262.896,128 262.896,71.111 
	275.825,71.111 275.825,57.32 "/>
<rect x="206.231" y="158.979" style="fill:#386895;" width="99.533" height="199.059"/>
<g>
	<rect x="256" y="158.979" style="fill:#273B7A;" width="49.766" height="199.059"/>
	<polygon style="fill:#273B7A;" points="355.533,432.7 156.467,432.7 156.467,308.284 256,258.517 355.533,308.284 	"/>
</g>
<polygon style="fill:#121149;" points="355.533,308.284 256,258.517 256,432.7 355.533,432.7 "/>
<g>
	<polygon style="fill:#FF6262;" points="256,237.404 142.895,293.957 142.895,333.167 256,276.614 369.105,333.167 369.105,293.957 
			"/>
	<polygon style="fill:#FF6262;" points="256,93.005 330.65,167.655 181.35,167.655 	"/>
</g>
<g>
	<polygon style="fill:#FF314F;" points="369.105,293.957 256,237.404 256,276.614 369.105,333.167 	"/>
	<polygon style="fill:#FF314F;" points="256,93.005 256,167.655 330.65,167.655 	"/>
</g>
<circle style="fill:#71E2EF;" cx="256" cy="208.748" r="16.589"/>
<path style="fill:#38C6D9;" d="M272.589,208.749c0-9.161-7.427-16.589-16.589-16.589v33.178
	C265.163,225.339,272.589,217.912,272.589,208.749z"/>
<path style="fill:#FF6262;" d="M231.117,432.7h49.767v-74.65c0-13.743-11.14-24.883-24.883-24.883l0,0
	c-13.743,0-24.883,11.14-24.883,24.883v74.65H231.117z"/>
<path style="fill:#FF314F;" d="M280.883,358.05c0-13.743-11.14-24.883-24.883-24.883V432.7h24.883V358.05z"/>
<g>
</g>
<g>
</g>
<g>
</g>
<g>
</g>
<g>
</g>
<g>
</g>
<g>
</g>
<g>
</g>
<g>
</g>
<g>
</g>
<g>
</g>
<g>
</g>
<g>
</g>
<g>
</g>
<g>
</g>
</svg>
