<?xml version="1.0" encoding="iso-8859-1"?>
<!-- Generator: Adobe Illustrator 19.0.0, SVG Export Plug-In . SVG Version: 6.00 Build 0)  -->
<svg version="1.1" id="Layer_1" xmlns="http://www.w3.org/2000/svg" xmlns:xlink="http://www.w3.org/1999/xlink" x="0px" y="0px"
	 viewBox="0 0 512 512" style="enable-background:new 0 0 512 512;" xml:space="preserve">
<circle style="fill:#273B7A;" cx="256" cy="256" r="256"/>
<path style="fill:#121149;" d="M224.396,297.948l-53.688,92.324l119.453,119.453c97.647-13.022,177.888-81.077,208.5-171.965
	L336.727,175.826l-0.617,3.367l-53.898-53.898l-19.706,11.461l-11.678-11.678l-7.758,9.387l-6.322,32.644l-8.045,97.797
	L224.396,297.948z"/>
<circle style="fill:#FF314F;" cx="256" cy="256" r="113.778"/>
<path style="fill:#A30F44;" d="M256,142.222c62.838,0,113.778,50.94,113.778,113.778S318.838,369.778,256,369.778V142.222z"/>
<path style="fill:#FFC61B;" d="M324.711,398.222H187.287c-9.768,0-18.284-6.647-20.652-16.125l-24.412-97.652h227.556
	l-24.414,97.652C342.995,391.575,334.481,398.222,324.711,398.222z"/>
<path style="fill:#EAA22F;" d="M255.426,284.444v113.778h69.285c9.769,0,18.284-6.649,20.652-16.125l24.414-97.652H255.426z"/>
<path style="fill:#FFFFFF;" d="M224.97,136.62c0-10.735,6.946-15.515,15.515-15.515c8.57,0,15.515,6.946,15.515,15.515
	c0-8.57,6.946-15.515,15.515-15.515s15.515,6.661,15.515,15.515c0,21.706-31.03,33.616-31.03,33.616S224.97,158.482,224.97,136.62z"
	/>
<path style="fill:#D0D1D3;" d="M256,136.62c0-8.57,6.946-15.515,15.515-15.515s15.515,6.661,15.515,15.515
	c0,21.706-31.03,33.616-31.03,33.616V136.62z"/>
<g>
</g>
<g>
</g>
<g>
</g>
<g>
</g>
<g>
</g>
<g>
</g>
<g>
</g>
<g>
</g>
<g>
</g>
<g>
</g>
<g>
</g>
<g>
</g>
<g>
</g>
<g>
</g>
<g>
</g>
</svg>
