<?xml version="1.0" encoding="iso-8859-1"?>
<!-- Generator: Adobe Illustrator 19.0.0, SVG Export Plug-In . SVG Version: 6.00 Build 0)  -->
<svg version="1.1" id="Layer_1" xmlns="http://www.w3.org/2000/svg" xmlns:xlink="http://www.w3.org/1999/xlink" x="0px" y="0px"
	 viewBox="0 0 512 512" style="enable-background:new 0 0 512 512;" xml:space="preserve">
<circle style="fill:#273B7A;" cx="256" cy="256" r="256"/>
<path style="fill:#121149;" d="M286.651,510.168C413.584,495.018,512,387.01,512,256c0-4.586-0.126-9.14-0.364-13.665
	L405.719,136.418l-5.372,3.849l-22.323-22.323l-0.417,38.624l-1.731,1.239l-19.511-19.509l-2.003,26.534h11.717l-54.627,39.162
	l2.319,2.319l-29.956,23.755l-50.002-50.002l16.725,76.393l-81.287,64.462l-22.719-22.721l-15.922,31.806l12.023,12.022
	l-13.45,10.668L286.651,510.168z"/>
<path style="fill:#EAA22F;" d="M210.046,288.563c-3.194-4.153-9.147-4.927-13.296-1.738c-15.043,11.567-32.094,24.719-49.274,38.259
	l1.076-20.533c0.274-5.229-3.743-9.69-8.971-9.964c-5.192-0.297-9.692,3.741-9.964,8.971l-2.257,43.039
	c-0.274,5.229,3.743,9.69,8.971,9.964l43.039,2.257c0.171,0.01,0.336,0.014,0.505,0.014c5.008,0,9.195-3.924,9.459-8.985
	c0.274-5.229-3.743-9.69-8.971-9.964l-19.715-1.033c16.617-13.079,33.085-25.779,47.661-36.986
	C212.459,298.665,213.237,292.712,210.046,288.563z"/>
<path style="fill:#E09112;" d="M129.183,352.697c1.626,2.212,4.193,3.706,7.147,3.862l43.039,2.257
	c0.171,0.01,0.336,0.014,0.505,0.014c5.008,0,9.195-3.924,9.459-8.985c0.274-5.229-3.743-9.69-8.971-9.964l-19.715-1.033
	c16.617-13.079,33.085-25.779,47.661-36.986c3.979-3.06,4.817-8.638,2.076-12.752L129.183,352.697z"/>
<path style="fill:#FF314F;" d="M146.532,224.072c0-37.871,24.505-54.734,54.734-54.734S256,193.843,256,224.072
	c0-30.229,24.505-54.734,54.734-54.734c30.229,0,54.734,23.497,54.734,54.734C365.468,300.644,256,342.662,256,342.662
	S146.532,301.197,146.532,224.072z"/>
<path style="fill:#A30F44;" d="M256,224.072c0-30.229,24.505-54.734,54.734-54.734c30.229,0,54.734,23.497,54.734,54.734
	C365.468,300.644,256,342.662,256,342.662V224.072z"/>
<path style="fill:#EAA22F;" d="M412.434,160.077l-20.023-1.402c3.889-2.989,7.761-5.973,11.616-8.957
	c4.139-3.205,4.898-9.159,1.691-13.302c-3.205-4.137-9.159-4.901-13.302-1.691c-4.548,3.52-9.128,7.046-13.726,10.576l1.557-22.25
	c0.233-3.324-2.272-6.208-5.598-6.439c-3.327-0.241-6.206,2.276-6.439,5.598l-2.301,32.904c-3.425,2.629-6.859,5.263-10.321,7.927
	l1.5-21.445c0.233-3.325-2.272-6.208-5.598-6.439c-3.329-0.233-6.206,2.274-6.439,5.598l-2.25,32.168
	c-10.904,8.456-21.933,17.113-33.049,26.098c-4.072,3.291-4.705,9.263-1.412,13.334c1.874,2.317,4.615,3.52,7.378,3.52
	c2.095,0,4.201-0.69,5.956-2.108c10.842-8.764,21.628-17.236,32.304-25.517l34.452,2.408c0.143,0.01,0.286,0.016,0.428,0.016
	c3.139,0,5.789-2.432,6.011-5.613c0.233-3.325-2.272-6.208-5.598-6.439l-20.933-1.464c3.227-2.482,6.437-4.946,9.631-7.397
	l33.62,2.351c0.143,0.01,0.286,0.016,0.428,0.016c3.139,0,5.789-2.432,6.011-5.613C418.264,163.194,415.76,160.309,412.434,160.077z
	"/>
<path style="fill:#E09112;" d="M412.434,160.077l-20.023-1.402c3.889-2.989,7.761-5.973,11.616-8.957
	c4.139-3.205,4.898-9.159,1.691-13.302c-0.047-0.06-0.107-0.103-0.155-0.162l-97.204,76.124c1.874,2.301,4.605,3.498,7.359,3.498
	c2.095,0,4.201-0.69,5.956-2.108c10.842-8.764,21.628-17.236,32.304-25.517l34.452,2.408c0.143,0.01,0.286,0.016,0.428,0.016
	c3.139,0,5.789-2.432,6.011-5.613c0.233-3.325-2.272-6.208-5.598-6.439l-20.933-1.464c3.227-2.482,6.437-4.946,9.631-7.397
	l33.62,2.351c0.143,0.01,0.286,0.016,0.428,0.016c3.139,0,5.789-2.432,6.011-5.613C418.264,163.194,415.76,160.309,412.434,160.077z
	"/>
<g>
</g>
<g>
</g>
<g>
</g>
<g>
</g>
<g>
</g>
<g>
</g>
<g>
</g>
<g>
</g>
<g>
</g>
<g>
</g>
<g>
</g>
<g>
</g>
<g>
</g>
<g>
</g>
<g>
</g>
</svg>
