<?xml version="1.0" encoding="iso-8859-1"?>
<!-- Generator: Adobe Illustrator 19.0.0, SVG Export Plug-In . SVG Version: 6.00 Build 0)  -->
<svg version="1.1" id="Layer_1" xmlns="http://www.w3.org/2000/svg" xmlns:xlink="http://www.w3.org/1999/xlink" x="0px" y="0px"
	 viewBox="0 0 512 512" style="enable-background:new 0 0 512 512;" xml:space="preserve">
<circle style="fill:#366695;" cx="256" cy="256" r="256"/>
<path style="fill:#273B7A;" d="M306.803,506.951c97.171-19.566,174.409-94.155,197.844-189.868L263.504,75.938l-29.555,42.149
	v140.56l-110.976,3.958l-0.488-0.488l-2.048,0.128l-41.743,0.517l17.987,17.575l-9.662,6.823L306.803,506.951z"/>
<path style="fill:#FFEDB5;" d="M236.175,407.704c-5.236,0-9.481-4.246-9.481-9.482V113.778c0-5.236,4.246-9.481,9.481-9.481
	s9.481,4.246,9.481,9.481v284.444C245.657,403.458,241.411,407.704,236.175,407.704z"/>
<path style="fill:#FEE187;" d="M226.694,255.426v142.796c0,5.236,4.246,9.482,9.481,9.482s9.481-4.246,9.481-9.482V255.426
	L226.694,255.426L226.694,255.426z"/>
<path style="fill:#FFAD9E;" d="M361.446,265.481H85.333c-5.235,0-9.481-4.246-9.481-9.481c0-5.236,4.246-9.481,9.481-9.481h276.113
	c5.236,0,9.481,4.246,9.481,9.481C370.928,261.236,366.682,265.481,361.446,265.481z"/>
<path style="fill:#FF6262;" d="M75.881,255.426c-0.012,0.191-0.029,0.379-0.029,0.574c0,5.236,4.246,9.481,9.481,9.481h276.113
	c5.236,0,9.481-4.246,9.481-9.481c0-0.195-0.017-0.383-0.029-0.574H75.881z"/>
<path style="fill:#FF314F;" d="M363.311,288.589c-11.274,0-16.294-7.296-16.294-16.294S354.313,256,363.311,256
	c-8.999,0-16.294-7.296-16.294-16.294s6.996-16.294,16.294-16.294c22.795,0,35.304,32.589,35.304,32.589
	S386.272,288.589,363.311,288.589z"/>
<path style="fill:#A30F44;" d="M359.079,255.426c1.352,0.364,2.765,0.574,4.232,0.574c-8.999,0-16.294,7.296-16.294,16.294
	s5.02,16.294,16.294,16.294c22.961,0,35.304-32.589,35.304-32.589s-0.084-0.215-0.233-0.574H359.079z"/>
<g>
	<path style="fill:#FF6262;" d="M93.375,289.616c-2.267,0-4.544-0.809-6.358-2.451c-3.884-3.512-4.184-9.509-0.671-13.391
		l16.144-17.848l-16.219-18.348c-3.468-3.922-3.1-9.914,0.826-13.384c3.92-3.468,9.911-3.1,13.384,0.826l21.835,24.698
		c3.196,3.617,3.167,9.061-0.074,12.64l-21.835,24.135C98.538,288.565,95.961,289.616,93.375,289.616z"/>
	<path style="fill:#FF6262;" d="M135.323,289.616c-2.267,0-4.544-0.809-6.358-2.451c-3.884-3.512-4.184-9.509-0.671-13.391
		l16.144-17.848l-16.218-18.348c-3.469-3.922-3.1-9.914,0.826-13.384c3.918-3.468,9.912-3.1,13.384,0.826l21.835,24.698
		c3.196,3.617,3.167,9.061-0.074,12.64l-21.835,24.135C140.486,288.565,137.909,289.616,135.323,289.616z"/>
</g>
<g>
	<path style="fill:#FF314F;" d="M102.05,255.426l0.445,0.503L86.35,273.777c-3.513,3.882-3.213,9.878,0.671,13.391
		c1.814,1.643,4.089,2.451,6.358,2.451c2.586,0,5.163-1.052,7.034-3.122l21.835-24.135c1.77-1.957,2.548-4.467,2.398-6.935H102.05
		V255.426z"/>
	<path style="fill:#FF314F;" d="M143.998,255.426l0.445,0.503l-16.144,17.848c-3.513,3.882-3.213,9.878,0.671,13.391
		c1.814,1.643,4.089,2.451,6.358,2.451c2.586,0,5.163-1.052,7.034-3.122l21.835-24.135c1.77-1.957,2.548-4.467,2.398-6.935h-22.595
		V255.426z"/>
</g>
<path style="fill:#FFC61B;" d="M257.796,437.969c-1.402,0-2.822-0.312-4.165-0.971c-2.3-1.131-22.571-11.604-26.352-31.182
	c-2.236-11.583,1.777-23.178,11.928-34.464c21.549-23.959,49.733-58.692,45.72-83.597c-1.515-9.399-7.721-17.092-18.978-23.519
	c-2.956-1.688-4.78-4.83-4.78-8.233c0-3.403,1.826-6.547,4.78-8.233c11.255-6.427,17.463-14.119,18.978-23.519
	c4.013-24.905-24.171-59.639-45.718-83.597c-10.152-11.286-14.165-22.881-11.929-34.464c3.781-19.577,24.052-30.051,26.352-31.182
	c4.699-2.305,10.38-0.374,12.691,4.329c2.308,4.699,0.372,10.381-4.329,12.691c-3.891,1.951-14.439,8.99-16.106,17.811
	c-1.024,5.422,1.472,11.523,7.42,18.135c26.193,29.125,55.587,66.731,50.34,99.295c-1.789,11.099-7.342,20.723-16.556,28.736
	c9.216,8.013,14.767,17.636,16.556,28.736c5.248,32.565-24.147,70.17-50.341,99.295c-5.946,6.613-8.44,12.714-7.418,18.135
	c1.667,8.821,12.216,15.86,16.139,17.829c4.667,2.341,6.58,8.023,4.26,12.7C264.632,436.031,261.28,437.969,257.796,437.969z"/>
<path style="fill:#EAA22F;" d="M303.649,284.736c-1.789-11.099-7.342-20.723-16.556-28.736c0.215-0.186,0.402-0.386,0.612-0.574
	h-26.498c-0.012,0.191-0.038,0.381-0.038,0.574c0,3.405,1.826,6.547,4.78,8.233c11.255,6.427,17.463,14.119,18.978,23.519
	c4.013,24.905-24.171,59.639-45.72,83.597c-10.15,11.286-14.164,22.881-11.928,34.464c3.781,19.577,24.052,30.051,26.352,31.182
	c1.343,0.66,2.765,0.971,4.165,0.971c3.484,0,6.835-1.938,8.492-5.275c2.322-4.677,0.407-10.359-4.26-12.7
	c-3.924-1.969-14.474-9.007-16.139-17.829c-1.024-5.422,1.472-11.523,7.418-18.135C279.502,354.906,308.896,317.3,303.649,284.736z"
	/>
<g>
</g>
<g>
</g>
<g>
</g>
<g>
</g>
<g>
</g>
<g>
</g>
<g>
</g>
<g>
</g>
<g>
</g>
<g>
</g>
<g>
</g>
<g>
</g>
<g>
</g>
<g>
</g>
<g>
</g>
</svg>
