<?xml version="1.0" encoding="iso-8859-1"?>
<!-- Generator: Adobe Illustrator 19.0.0, SVG Export Plug-In . SVG Version: 6.00 Build 0)  -->
<svg version="1.1" id="Layer_1" xmlns="http://www.w3.org/2000/svg" xmlns:xlink="http://www.w3.org/1999/xlink" x="0px" y="0px"
	 viewBox="0 0 512 512" style="enable-background:new 0 0 512 512;" xml:space="preserve">
<circle style="fill:#273B7A;" cx="256" cy="256" r="256"/>
<path style="fill:#121149;" d="M282.115,192.291l-71.254-70.642l2.538,17.294l1.229,3.331l3.972,10.374l112.485,113.295
	l-75.083,132.275l95.397,95.397c75.211-30.224,132.751-95.11,152.848-174.89L307.398,121.658l-12.433,25.062l-35.83-35.892
	l-6.051,34.563l116.945,116.176L282.115,192.291z"/>
<polygon style="fill:#38C6D9;" points="188.337,180.257 120.673,247.927 256,398.222 256,398.222 256,180.257 "/>
<polygon style="fill:#02B2B2;" points="323.663,180.257 256,180.257 256,398.222 391.327,247.927 "/>
<polygon style="fill:#71E2EF;" points="188.337,180.257 120.673,247.927 256,247.927 256,180.257 "/>
<polygon style="fill:#38C6D9;" points="323.663,180.257 256,180.257 256,247.927 391.327,247.927 "/>
<polygon style="fill:#71E2EF;" points="256,398.222 199.111,247.927 227.556,180.257 284.444,180.257 312.889,247.927 "/>
<g>
	<polygon style="fill:#38C6D9;" points="284.444,180.257 256,180.257 256,398.22 312.889,247.927 	"/>
	<polygon style="fill:#38C6D9;" points="199.111,247.927 227.556,180.257 284.444,180.257 312.889,247.927 	"/>
</g>
<polygon style="fill:#02B2B2;" points="284.444,180.257 256,180.257 256,247.927 312.889,247.927 "/>
<path style="fill:#38C6D9;" d="M256,146.532c-2.381,0-4.31-1.929-4.31-4.31v-28.444c0-2.381,1.929-4.31,4.31-4.31
	s4.31,1.929,4.31,4.31v28.444C260.31,144.603,258.381,146.532,256,146.532z"/>
<g>
	<path style="fill:#02B2B2;" d="M256,109.468v37.064c2.381,0,4.31-1.929,4.31-4.31v-28.444
		C260.31,111.397,258.381,109.468,256,109.468z"/>
	<path style="fill:#02B2B2;" d="M290.475,153.8c-0.707,0-1.424-0.174-2.086-0.54c-2.082-1.153-2.834-3.777-1.681-5.858
		l13.791-24.879c1.153-2.081,3.777-2.834,5.858-1.681c2.082,1.153,2.834,3.777,1.681,5.858l-13.791,24.879
		C293.46,152.998,291.99,153.8,290.475,153.8z"/>
</g>
<path style="fill:#38C6D9;" d="M221.525,153.8c-1.515,0-2.984-0.8-3.772-2.22L203.962,126.7c-1.153-2.081-0.402-4.705,1.681-5.858
	c2.079-1.153,4.703-0.403,5.858,1.681l13.791,24.879c1.153,2.081,0.402,4.705-1.681,5.858
	C222.949,153.626,222.232,153.8,221.525,153.8z"/>
<g>
</g>
<g>
</g>
<g>
</g>
<g>
</g>
<g>
</g>
<g>
</g>
<g>
</g>
<g>
</g>
<g>
</g>
<g>
</g>
<g>
</g>
<g>
</g>
<g>
</g>
<g>
</g>
<g>
</g>
</svg>
