<?xml version="1.0" encoding="iso-8859-1"?>
<!-- Generator: Adobe Illustrator 19.0.0, SVG Export Plug-In . SVG Version: 6.00 Build 0)  -->
<svg version="1.1" id="Layer_1" xmlns="http://www.w3.org/2000/svg" xmlns:xlink="http://www.w3.org/1999/xlink" x="0px" y="0px"
	 viewBox="0 0 512 512" style="enable-background:new 0 0 512 512;" xml:space="preserve">
<circle style="fill:#273B7A;" cx="256" cy="256" r="256"/>
<path style="fill:#121149;" d="M270.239,511.6c130.045-7.132,234.227-111.314,241.359-241.359l-104.75-104.75l-59.982,27.376
	l-13.291,5.672L165.49,406.849L270.239,511.6z"/>
<rect x="198.597" y="79.234" transform="matrix(-0.7071 -0.7071 0.7071 -0.7071 249.9003 603.3103)" style="fill:#FFFFFF;" width="102.606" height="341.33"/>
<rect x="240.384" y="96.536" transform="matrix(-0.7071 -0.7071 0.7071 -0.7071 267.1981 645.0791)" style="fill:#D0D1D3;" width="53.63" height="341.33"/>
<polygon style="fill:#FF314F;" points="383.943,331.119 331.119,331.119 331.119,383.943 251.885,304.709 304.709,251.885 "/>
<polygon style="fill:#A30F44;" points="278.297,278.297 251.885,304.709 331.119,383.943 331.119,331.119 331.121,331.119 "/>
<circle style="fill:#FFC61B;" cx="267.636" cy="267.636" r="56.889"/>
<path style="fill:#EAA22F;" d="M227.404,227.404L227.404,227.404c-22.218,22.216-22.218,58.237,0,80.453
	c22.216,22.216,58.237,22.216,80.453,0l0,0L227.404,227.404z"/>
<circle style="fill:#FEE187;" cx="267.636" cy="267.636" r="42.667"/>
<path style="fill:#FFC61B;" d="M237.461,237.461L237.461,237.461c-16.663,16.663-16.663,43.679,0,60.34
	c16.662,16.662,43.677,16.662,60.34,0l0,0L237.461,237.461z"/>
<g>
</g>
<g>
</g>
<g>
</g>
<g>
</g>
<g>
</g>
<g>
</g>
<g>
</g>
<g>
</g>
<g>
</g>
<g>
</g>
<g>
</g>
<g>
</g>
<g>
</g>
<g>
</g>
<g>
</g>
</svg>
