<?xml version="1.0" encoding="iso-8859-1"?>
<!-- Generator: Adobe Illustrator 19.0.0, SVG Export Plug-In . SVG Version: 6.00 Build 0)  -->
<svg version="1.1" id="Layer_1" xmlns="http://www.w3.org/2000/svg" xmlns:xlink="http://www.w3.org/1999/xlink" x="0px" y="0px"
	 viewBox="0 0 512 512" style="enable-background:new 0 0 512 512;" xml:space="preserve">
<circle style="fill:#386895;" cx="256" cy="256" r="256"/>
<path style="fill:#273B7A;" d="M282.419,510.65c112.481-11.531,203.373-95.892,224.782-205.148L310.708,110.266l-14.339-0.583
	l-73.266,4.956l-44.678,76.714l116.758,116.758L185.532,413.765L282.419,510.65z"/>
<path style="fill:#FFFFFF;" d="M178.424,258.358v136.208c0,16.301,13.214,29.515,29.515,29.515h96.12
	c16.301,0,29.515-13.214,29.515-29.515V165.104c0.002-42.629-34.556-77.184-77.183-77.184h-0.784
	c-42.627,0-77.183,34.556-77.183,77.184v26.25h36.045v-16.455c0-22.937,18.594-41.531,41.531-41.531l0,0
	c22.937,0,41.531,18.594,41.531,41.531v33.694L193.108,238.82C184.41,241.338,178.424,249.303,178.424,258.358z"/>
<path style="fill:#D0D1D3;" d="M256.391,87.919H256v45.449c22.937,0,41.531,18.594,41.531,41.531v33.694L256,220.615v203.466h48.059
	c16.301,0,29.515-13.215,29.515-29.515V165.104C333.576,122.477,299.018,87.919,256.391,87.919z"/>
<path style="fill:#FF314F;" d="M215.254,315.292c0-14.096,9.121-20.373,20.373-20.373S256,304.04,256,315.292
	c0-11.252,9.121-20.373,20.373-20.373s20.373,8.745,20.373,20.373c0,28.503-40.746,44.142-40.746,44.142
	S215.254,344,215.254,315.292z"/>
<path style="fill:#A30F44;" d="M256,315.292c0-11.252,9.121-20.373,20.373-20.373s20.373,8.745,20.373,20.373
	c0,28.503-40.746,44.142-40.746,44.142L256,315.292L256,315.292z"/>
<g>
</g>
<g>
</g>
<g>
</g>
<g>
</g>
<g>
</g>
<g>
</g>
<g>
</g>
<g>
</g>
<g>
</g>
<g>
</g>
<g>
</g>
<g>
</g>
<g>
</g>
<g>
</g>
<g>
</g>
</svg>
