<?xml version="1.0" encoding="iso-8859-1"?>
<!-- Generator: Adobe Illustrator 19.0.0, SVG Export Plug-In . SVG Version: 6.00 Build 0)  -->
<svg version="1.1" id="Layer_1" xmlns="http://www.w3.org/2000/svg" xmlns:xlink="http://www.w3.org/1999/xlink" x="0px" y="0px"
	 viewBox="0 0 512 512" style="enable-background:new 0 0 512 512;" xml:space="preserve">
<circle style="fill:#FFEDB5;" cx="256" cy="256" r="256"/>
<path style="fill:#FEE187;" d="M265.807,511.795c110.904-4.179,203.748-78.893,234.958-180.591L295.743,126.181l-118.87,83.847
	v21.09l-3.367,68.339l-48.712,71.552L265.807,511.795z"/>
<polygon style="fill:#02B2B2;" points="255.378,171.008 215.014,126.181 235.196,105.996 275.561,105.996 295.743,126.181 "/>
<g>
	<polygon style="fill:#71E2EF;" points="215.014,126.181 235.196,105.996 275.561,105.996 295.743,126.181 	"/>
	<polygon style="fill:#71E2EF;" points="255.378,171.008 238.411,126.181 246.894,105.996 263.863,105.996 272.346,126.181 	"/>
</g>
<g>
	<polygon style="fill:#38C6D9;" points="263.863,105.996 255.426,105.996 255.426,170.884 272.346,126.181 	"/>
	<polygon style="fill:#38C6D9;" points="238.411,126.181 246.894,105.996 263.863,105.996 272.346,126.181 	"/>
</g>
<polygon style="fill:#02B2B2;" points="263.863,105.996 255.426,105.996 255.426,126.181 272.346,126.181 "/>
<path style="fill:#EAA22F;" d="M285.715,163.306c0.346-1.008,0.545-2.086,0.545-3.212c0-5.454-4.42-9.875-9.875-9.875h-40.772
	c-5.454,0-9.875,4.42-9.875,9.875c0,1.126,0.198,2.203,0.545,3.212c-35.168,12.312-60.468,45.811-60.468,85.13
	c0,49.728,40.455,90.183,90.183,90.183s90.183-40.455,90.183-90.183C346.183,209.118,320.883,175.618,285.715,163.306z M256,318.871
	c-38.838,0-70.435-31.597-70.435-70.435S217.162,178,256,178s70.435,31.597,70.435,70.435S294.838,318.871,256,318.871z"/>
<path style="fill:#E09112;" d="M285.715,163.306c0.346-1.008,0.545-2.086,0.545-3.212c0-5.454-4.42-9.875-9.875-9.875h-20.959
	v27.795c0.191-0.002,0.381-0.016,0.574-0.016c38.838,0,70.435,31.597,70.435,70.435S294.838,318.871,256,318.871
	c-0.193,0-0.383-0.014-0.574-0.014v19.749c0.193,0,0.381,0.014,0.574,0.014c49.728,0,90.183-40.455,90.183-90.183
	C346.183,209.118,320.883,175.618,285.715,163.306z"/>
<rect x="125.931" y="239.761" style="fill:#386895;" width="260.137" height="32.518"/>
<rect x="255.431" y="239.761" style="fill:#273B7A;" width="130.638" height="32.518"/>
<path style="fill:#FF314F;" d="M356.155,383.924H155.845c-24.185,0-43.791-19.606-43.791-43.791v-75.442h287.892v75.442
	C399.946,364.318,380.34,383.924,356.155,383.924z"/>
<path style="fill:#A30F44;" d="M255.426,264.692v119.232h100.73c24.185,0,43.791-19.606,43.791-43.791v-75.442L255.426,264.692
	L255.426,264.692z"/>
<g>
</g>
<g>
</g>
<g>
</g>
<g>
</g>
<g>
</g>
<g>
</g>
<g>
</g>
<g>
</g>
<g>
</g>
<g>
</g>
<g>
</g>
<g>
</g>
<g>
</g>
<g>
</g>
<g>
</g>
</svg>
