<?xml version="1.0" encoding="iso-8859-1"?>
<!-- Generator: Adobe Illustrator 19.0.0, SVG Export Plug-In . SVG Version: 6.00 Build 0)  -->
<svg version="1.1" id="Layer_1" xmlns="http://www.w3.org/2000/svg" xmlns:xlink="http://www.w3.org/1999/xlink" x="0px" y="0px"
	 viewBox="0 0 512 512" style="enable-background:new 0 0 512 512;" xml:space="preserve">
<circle style="fill:#FFEDB5;" cx="256" cy="256" r="256"/>
<path style="fill:#FEE187;" d="M504.408,318.062L308.04,121.696L235.17,171.96l-6.465,3.305l-85.333,85.333l28.357,103.814
	l141.222,141.222C406.895,484.29,481.192,411.281,504.408,318.062z"/>
<polygon style="fill:#38C6D9;" points="255.186,180.393 202.333,121.694 228.759,95.265 281.612,95.265 308.04,121.694 "/>
<polygon style="fill:#71E2EF;" points="202.333,121.694 228.759,95.265 281.612,95.265 308.04,121.694 "/>
<polygon style="fill:#8FEDF2;" points="255.186,180.393 232.967,121.694 244.077,95.265 266.295,95.265 277.404,121.694 "/>
<polygon style="fill:#71E2EF;" points="266.295,95.265 255.426,95.265 255.426,179.76 277.404,121.696 "/>
<polygon style="fill:#57DBE5;" points="232.967,121.694 244.077,95.265 266.295,95.265 277.404,121.694 "/>
<polygon style="fill:#38C6D9;" points="266.295,95.265 255.426,95.265 255.426,121.696 277.404,121.696 "/>
<path style="fill:#EAA22F;" d="M294.91,170.308c0.455-1.321,0.714-2.731,0.714-4.205c0-7.142-5.787-12.929-12.929-12.929h-53.388
	c-7.142,0-12.929,5.787-12.929,12.929c0,1.474,0.259,2.886,0.714,4.205c-46.051,16.12-79.179,59.987-79.179,111.469
	c0,65.114,52.974,118.088,118.088,118.088s118.088-52.974,118.088-118.088C374.088,230.295,340.959,186.428,294.91,170.308z
	 M256,374.007c-50.855,0-92.229-41.374-92.229-92.229s41.374-92.229,92.229-92.229s92.229,41.374,92.229,92.229
	S306.855,374.007,256,374.007z"/>
<path style="fill:#E09112;" d="M294.91,170.308c0.455-1.321,0.714-2.731,0.714-4.205c0-7.142-5.787-12.929-12.929-12.929h-27.267
	v36.39c0.193-0.002,0.381-0.014,0.574-0.014c50.855,0,92.229,41.374,92.229,92.229s-41.374,92.229-92.229,92.229
	c-0.193,0-0.381-0.014-0.574-0.014v25.859c0.193,0.002,0.381,0.014,0.574,0.014c65.114,0,118.088-52.974,118.088-118.088
	C374.088,230.295,340.959,186.428,294.91,170.308z"/>
<g>
</g>
<g>
</g>
<g>
</g>
<g>
</g>
<g>
</g>
<g>
</g>
<g>
</g>
<g>
</g>
<g>
</g>
<g>
</g>
<g>
</g>
<g>
</g>
<g>
</g>
<g>
</g>
<g>
</g>
</svg>
