<?xml version="1.0" encoding="iso-8859-1"?>
<!-- Generator: Adobe Illustrator 19.0.0, SVG Export Plug-In . SVG Version: 6.00 Build 0)  -->
<svg version="1.1" id="Layer_1" xmlns="http://www.w3.org/2000/svg" xmlns:xlink="http://www.w3.org/1999/xlink" x="0px" y="0px"
	 viewBox="0 0 512 512" style="enable-background:new 0 0 512 512;" xml:space="preserve">
<circle style="fill:#386895;" cx="256" cy="256" r="256"/>
<path style="fill:#273B7A;" d="M149.42,322.644L329.8,501.182c86.468-25.991,153.669-96.463,175.026-184.837L319.1,130.491
	l-39.843,30.891l-35.368-35.368l-20.068,11.036l-0.719,2.298l-5.746,19.106l-15.853,33.759l74.655,74.655l-24.181,12.69
	c0,0-44.36-41.941-69.244-41.086c-24.883,0.855-44.246,30.456-38.788,47.983C149.406,303.981,149.42,322.644,149.42,322.644z"/>
<path style="fill:#FF314F;" d="M185.32,152.638c0-24.452,15.822-35.34,35.34-35.34S256,133.12,256,152.638
	c0-19.518,15.822-35.34,35.34-35.34s35.34,15.17,35.34,35.34c0,49.44-70.68,76.571-70.68,76.571S185.32,202.435,185.32,152.638z"/>
<path style="fill:#A30F44;" d="M291.34,117.298c-19.518,0-35.34,15.822-35.34,35.34c0-2.112-0.219-4.168-0.574-6.178v82.525
	c0.369,0.147,0.574,0.226,0.574,0.226s70.68-27.129,70.68-76.571C326.68,132.468,310.858,117.298,291.34,117.298z"/>
<path style="fill:#EAA22F;" d="M324.267,230.314c-22.752,0-54.582,28.503-68.267,41.879c-13.684-13.376-45.513-41.879-68.267-41.879
	c-29.848,0-54.131,24.283-54.131,54.131c0,29.848,24.283,54.131,54.131,54.131c22.752,0,54.582-28.503,68.267-41.879
	c13.684,13.376,45.513,41.879,68.267,41.879c29.848,0,54.131-24.283,54.131-54.131C378.397,254.597,354.114,230.314,324.267,230.314
	z M187.733,321.336c-20.342,0-36.892-16.551-36.892-36.892c0-20.34,16.551-36.892,36.892-36.892
	c13.822,0,39.557,20.666,56.156,36.892C227.292,300.67,201.556,321.336,187.733,321.336z M324.267,321.336
	c-13.822,0-39.557-20.666-56.156-36.892c16.599-16.225,42.336-36.892,56.156-36.892c20.342,0,36.892,16.551,36.892,36.892
	C361.158,304.785,344.607,321.336,324.267,321.336z"/>
<path style="fill:#E09112;" d="M324.267,230.314c-22.752,0-54.582,28.503-68.267,41.879c-0.184-0.179-0.384-0.372-0.574-0.557
	v25.622c0.19-0.184,0.39-0.378,0.574-0.557c13.684,13.376,45.513,41.879,68.267,41.879c29.848,0,54.131-24.283,54.131-54.131
	S354.114,230.314,324.267,230.314z M324.267,321.336c-13.822,0-39.557-20.666-56.156-36.892
	c16.599-16.225,42.336-36.892,56.156-36.892c20.342,0,36.892,16.551,36.892,36.892C361.158,304.785,344.607,321.336,324.267,321.336
	z"/>
<g>
</g>
<g>
</g>
<g>
</g>
<g>
</g>
<g>
</g>
<g>
</g>
<g>
</g>
<g>
</g>
<g>
</g>
<g>
</g>
<g>
</g>
<g>
</g>
<g>
</g>
<g>
</g>
<g>
</g>
</svg>
