<?xml version="1.0" encoding="iso-8859-1"?>
<!-- Generator: Adobe Illustrator 19.0.0, SVG Export Plug-In . SVG Version: 6.00 Build 0)  -->
<svg version="1.1" id="Layer_1" xmlns="http://www.w3.org/2000/svg" xmlns:xlink="http://www.w3.org/1999/xlink" x="0px" y="0px"
	 viewBox="0 0 512 512" style="enable-background:new 0 0 512 512;" xml:space="preserve">
<circle style="fill:#273B7A;" cx="256" cy="256" r="256"/>
<g>
	<path style="fill:#121149;" d="M334.057,499.864L116.214,282.019l5.179,32.449l4.448,4.448l14.126,53.457L278.59,510.997
		C297.763,509.319,316.33,505.534,334.057,499.864z"/>
	<path style="fill:#121149;" d="M374.075,149.851l-8.744,18.408l-61.29-61.535l-5.996,5.61l-35.921-36.097l-19.866,60.014
		l-18.091,32.003l31.975,31.861l0.288,53.732l-64.388-64.727l-38.465,30.541l-10.262-10.605l-29.579,15.169l27.879,28.329v7.361
		l66.477,66.477l-0.305,0.874l-12.355-12.719l-12.55,8.906l19.466,19.425l-2.688,4.767l34.318,35.206l-1.765,0.628l112.733,112.637
		c89.217-33.063,154.979-114.421,165.547-212.33L374.075,149.851z"/>
</g>
<path style="fill:#FFC61B;" d="M263.796,78.583l8.875,17.98c1.267,2.565,3.715,4.344,6.546,4.756l19.842,2.884
	c7.13,1.036,9.978,9.799,4.818,14.829l-14.358,13.996c-2.05,1.998-2.984,4.875-2.5,7.696l3.389,19.763
	c1.219,7.102-6.237,12.517-12.614,9.164l-17.748-9.33c-2.532-1.331-5.558-1.331-8.092,0l-17.748,9.33
	c-6.378,3.353-13.833-2.064-12.614-9.164l3.389-19.763c0.484-2.82-0.452-5.698-2.5-7.696l-14.358-13.996
	c-5.16-5.03-2.312-13.793,4.818-14.829l19.842-2.884c2.832-0.412,5.28-2.189,6.546-4.756l8.873-17.98
	C251.392,72.121,260.606,72.121,263.796,78.583z"/>
<path style="fill:#EAA22F;" d="M303.876,119.031c5.16-5.03,2.312-13.793-4.818-14.829l-19.842-2.882
	c-2.832-0.412-5.28-2.191-6.546-4.756l-8.873-17.98c-1.595-3.231-4.694-4.846-7.796-4.846v85.583c1.389,0,2.779,0.333,4.044,0.998
	l17.748,9.33c6.378,3.353,13.833-2.064,12.614-9.164l-3.389-19.763c-0.484-2.82,0.452-5.698,2.5-7.696L303.876,119.031z"/>
<path style="fill:#FFC61B;" d="M376.006,153.831l2.098,16.031c0.3,2.288,1.705,4.282,3.76,5.332l14.395,7.359
	c5.173,2.644,5.068,10.075-0.178,12.571l-14.598,6.949c-2.082,0.991-3.544,2.944-3.91,5.223l-2.551,15.965
	c-0.917,5.737-8.014,7.933-12.01,3.715l-11.119-11.736c-1.588-1.676-3.896-2.462-6.175-2.103l-15.972,2.507
	c-5.741,0.902-10.021-5.172-7.246-10.274l7.725-14.202c1.103-2.027,1.138-4.467,0.093-6.523l-7.32-14.415
	c-2.631-5.18,1.82-11.13,7.533-10.066l15.894,2.958c2.269,0.422,4.599-0.298,6.232-1.927l11.448-11.416
	C368.219,145.675,375.253,148.071,376.006,153.831z"/>
<path style="fill:#EAA22F;" d="M396.259,182.555l-14.395-7.359c-2.055-1.05-3.46-3.044-3.76-5.332l-2.098-16.031
	c-0.357-2.729-2.129-4.691-4.327-5.575l-22.89,65.095c1.167,0.345,2.243,0.981,3.105,1.889l11.121,11.736
	c3.996,4.218,11.093,2.022,12.01-3.715l2.551-15.965c0.364-2.279,1.826-4.232,3.91-5.223l14.598-6.949
	C401.327,192.627,401.432,185.199,396.259,182.555z"/>
<path style="fill:#FFC61B;" d="M149.176,176.588l12.441,11.991c1.776,1.712,4.279,2.439,6.696,1.946l16.932-3.451
	c6.085-1.24,10.95,5.036,8.233,10.619l-7.559,15.538c-1.079,2.217-0.998,4.823,0.217,6.97l8.514,15.036
	c3.06,5.404-1.405,11.971-7.556,11.112l-17.113-2.388c-2.443-0.341-4.896,0.541-6.561,2.36l-11.669,12.743
	c-4.194,4.58-11.819,2.363-12.903-3.751l-3.017-17.015c-0.431-2.427-2.029-4.489-4.272-5.511l-15.725-7.161
	c-5.651-2.574-5.899-10.511-0.419-13.431l15.25-8.126c2.176-1.16,3.643-3.317,3.92-5.766l1.95-17.168
	C137.235,174.966,144.706,172.279,149.176,176.588z"/>
<path style="fill:#EAA22F;" d="M194.651,235.239l-8.514-15.036c-1.215-2.146-1.296-4.753-0.217-6.97l7.559-15.538
	c2.717-5.584-2.148-11.859-8.233-10.619l-16.932,3.451c-2.417,0.493-4.92-0.236-6.696-1.946l-12.441-11.991
	c-2.186-2.107-5.084-2.532-7.563-1.705l24.804,69.448c1.126-0.403,2.346-0.538,3.565-0.369l17.113,2.388
	C193.246,247.208,197.711,240.642,194.651,235.239z"/>
<path style="fill:#FFC61B;" d="M305.597,242.757l2.488,11.026c0.355,1.574,1.462,2.872,2.96,3.47l10.493,4.201
	c3.772,1.51,4.174,6.689,0.683,8.763l-9.718,5.773c-1.386,0.824-2.279,2.277-2.386,3.887l-0.753,11.278
	c-0.271,4.053-5.072,6.037-8.123,3.356l-8.494-7.458c-1.212-1.064-2.87-1.464-4.434-1.069l-10.959,2.769
	c-3.937,0.995-7.308-2.958-5.703-6.689l4.468-10.383c0.638-1.483,0.505-3.182-0.353-4.548l-6.02-9.566
	c-2.164-3.437,0.555-7.864,4.599-7.49l11.255,1.041c1.607,0.148,3.182-0.503,4.215-1.741l7.239-8.682
	C299.653,237.578,304.702,238.794,305.597,242.757z"/>
<path style="fill:#EAA22F;" d="M321.538,261.454l-10.493-4.201c-1.498-0.6-2.605-1.898-2.96-3.47l-2.488-11.026
	c-0.469-2.079-2.084-3.393-3.887-3.731l-12.152,46.82c1.16,0.01,2.294,0.428,3.188,1.21l8.494,7.458
	c3.053,2.681,7.852,0.696,8.123-3.356l0.753-11.278c0.107-1.61,1-3.063,2.386-3.887l9.718-5.773
	C325.711,268.143,325.308,262.965,321.538,261.454z"/>
<path style="fill:#FFC61B;" d="M207.641,293.507l7.69,8.282c1.098,1.183,2.707,1.748,4.303,1.514l11.183-1.641
	c4.018-0.59,6.97,3.686,4.992,7.234l-5.501,9.875c-0.784,1.408-0.826,3.115-0.11,4.56l5.015,10.13
	c1.803,3.641-1.352,7.768-5.337,6.984l-11.09-2.179c-1.583-0.31-3.217,0.176-4.37,1.305l-8.083,7.901
	c-2.905,2.839-7.804,1.115-8.29-2.917l-1.353-11.223c-0.193-1.602-1.162-3.005-2.591-3.755l-10.011-5.246
	c-3.598-1.886-3.472-7.078,0.214-8.787l10.254-4.756c1.464-0.679,2.5-2.034,2.77-3.624l1.896-11.143
	C199.901,292.016,204.878,290.53,207.641,293.507z"/>
<path style="fill:#EAA22F;" d="M235.81,308.896c1.977-3.548-0.974-7.823-4.992-7.234l-11.183,1.641
	c-1.596,0.234-3.205-0.333-4.303-1.514l-7.69-8.282c-1.157-1.245-2.7-1.702-4.155-1.526l12.652,46.528
	c0.838-0.312,1.746-0.421,2.648-0.243l11.09,2.179c3.986,0.783,7.14-3.344,5.337-6.984l-5.015-10.13
	c-0.715-1.446-0.674-3.151,0.11-4.56L235.81,308.896z"/>
<g>
	<path style="fill:#FFEDB5;" d="M256,259.448c-1.903,0-3.448-1.545-3.448-3.448v-85.333c0-1.903,1.545-3.448,3.448-3.448
		s3.448,1.545,3.448,3.448V256C259.448,257.903,257.903,259.448,256,259.448z"/>
	<path style="fill:#FFEDB5;" d="M344.492,336.484c-0.709,0-1.424-0.217-2.041-0.671c-1.534-1.129-1.862-3.286-0.734-4.822
		l50.566-68.737c1.131-1.533,3.284-1.862,4.822-0.734c1.534,1.129,1.862,3.286,0.734,4.822l-50.566,68.737
		C346.596,335.996,345.55,336.484,344.492,336.484z"/>
	<path style="fill:#FFEDB5;" d="M142.222,373.227c-1.445,0-2.789-0.914-3.27-2.358l-28.444-85.333
		c-0.603-1.807,0.374-3.76,2.181-4.361c1.815-0.61,3.762,0.376,4.361,2.181l28.444,85.333c0.603,1.807-0.374,3.76-2.181,4.361
		C142.951,373.17,142.583,373.227,142.222,373.227z"/>
	<path style="fill:#FFEDB5;" d="M256,401.672c-0.36,0-0.729-0.057-1.091-0.179c-1.807-0.603-2.782-2.555-2.181-4.361l28.444-85.333
		c0.602-1.805,2.55-2.789,4.361-2.181c1.807,0.603,2.782,2.555,2.181,4.361l-28.444,85.333
		C258.789,400.758,257.445,401.672,256,401.672z"/>
	<path style="fill:#FFEDB5;" d="M234.637,384.472c-1.284,0-2.519-0.721-3.112-1.958l-12.438-25.943
		c-0.824-1.717-0.098-3.775,1.619-4.599c1.714-0.824,3.775-0.102,4.599,1.619l12.438,25.943c0.824,1.717,0.098,3.775-1.619,4.599
		C235.646,384.365,235.137,384.472,234.637,384.472z"/>
	<path style="fill:#FFEDB5;" d="M181.874,283.582c-1.3,0-2.546-0.74-3.129-1.996l-11.205-24.135
		c-0.802-1.726-0.05-3.775,1.677-4.579c1.724-0.798,3.775-0.052,4.579,1.677l11.205,24.135c0.802,1.726,0.05,3.775-1.677,4.579
		C182.853,283.479,182.36,283.582,181.874,283.582z"/>
	<path style="fill:#FFEDB5;" d="M331.85,250.828c-0.5,0-1.007-0.109-1.486-0.336c-1.717-0.822-2.444-2.881-1.622-4.599l9.481-19.825
		c0.824-1.719,2.886-2.443,4.599-1.622c1.717,0.822,2.444,2.881,1.622,4.599l-9.482,19.825
		C334.37,250.106,333.136,250.828,331.85,250.828z"/>
</g>
<g>
</g>
<g>
</g>
<g>
</g>
<g>
</g>
<g>
</g>
<g>
</g>
<g>
</g>
<g>
</g>
<g>
</g>
<g>
</g>
<g>
</g>
<g>
</g>
<g>
</g>
<g>
</g>
<g>
</g>
</svg>
