<?xml version="1.0" encoding="iso-8859-1"?>
<!-- Generator: Adobe Illustrator 19.0.0, SVG Export Plug-In . SVG Version: 6.00 Build 0)  -->
<svg version="1.1" id="Layer_1" xmlns="http://www.w3.org/2000/svg" xmlns:xlink="http://www.w3.org/1999/xlink" x="0px" y="0px"
	 viewBox="0 0 512 512" style="enable-background:new 0 0 512 512;" xml:space="preserve">
<circle style="fill:#D35933;" cx="256" cy="256" r="256"/>
<path style="fill:#B54324;" d="M268.197,511.703c130.448-6.12,235.346-109.87,243.298-239.831L373.8,134.177l-26.783,62.897
	L94.482,337.989L268.197,511.703z"/>
<path style="fill:#A6A8AA;" d="M380.49,205.16c0,0-26,91.567-26,153.178h-18.653c0,0,11.869-96.091-24.305-138.481l41.827-27.131
	L380.49,205.16z"/>
<path style="fill:#808183;" d="M380.49,205.16l-27.131-12.435l-6.566,4.26V358.34h7.697C354.49,296.727,380.49,205.16,380.49,205.16
	z"/>
<path style="fill:#FFFFFF;" d="M362.403,124.897c0,0-51.217-10.597-84.566,38.012s-48.828,112.34-86.133,114.035
	c-37.305,1.696-54.262-4.522-77.436,6.784s-19.785,54.262-19.785,54.262s115.307,39.567,144.134-7.913
	c28.827-47.48,65.002-129.438,141.874-124.916C380.49,205.16,412.71,159.375,362.403,124.897z"/>
<path style="fill:#D0D1D3;" d="M362.403,124.897c0,0-51.217-10.597-84.566,38.012c-12.054,17.57-21.771,37.107-31.03,54.984v98.261
	c27.657-47.94,63.902-115.1,133.684-110.995C380.49,205.16,412.71,159.375,362.403,124.897z"/>
<g>
</g>
<g>
</g>
<g>
</g>
<g>
</g>
<g>
</g>
<g>
</g>
<g>
</g>
<g>
</g>
<g>
</g>
<g>
</g>
<g>
</g>
<g>
</g>
<g>
</g>
<g>
</g>
<g>
</g>
</svg>
