<?xml version="1.0" encoding="iso-8859-1"?>
<!-- Generator: Adobe Illustrator 19.0.0, SVG Export Plug-In . SVG Version: 6.00 Build 0)  -->
<svg version="1.1" id="Layer_1" xmlns="http://www.w3.org/2000/svg" xmlns:xlink="http://www.w3.org/1999/xlink" x="0px" y="0px"
	 viewBox="0 0 512 512" style="enable-background:new 0 0 512 512;" xml:space="preserve">
<circle style="fill:#FFC61B;" cx="256" cy="256" r="256"/>
<path style="fill:#EAA22F;" d="M288.696,509.931c115.536-14.729,207.007-106.47,221.339-222.129L367.116,144.884L225.178,294.134
	l2.367,2.367l-74.88,79.251L288.696,509.931z"/>
<path style="fill:#353333;" d="M152.666,375.753l-16.418-16.418c-7.763-7.763-7.763-20.351,0-28.113l127.748-127.748
	c7.763-7.763,20.351-7.763,28.113,0l16.418,16.418c7.763,7.763,7.763,20.351,0,28.113L180.779,375.753
	C173.016,383.517,160.428,383.516,152.666,375.753z"/>
<path style="fill:#272525;" d="M300.032,211.394L144.17,367.256l8.497,8.497c7.763,7.763,20.351,7.763,28.113,0l127.748-127.748
	c7.763-7.763,7.763-20.351,0-28.113L300.032,211.394z"/>
<path style="fill:#D35933;" d="M308.527,248.005c7.763-7.763,7.763-20.351,0-28.113l-16.418-16.418
	c-7.763-7.763-20.351-7.763-28.113,0l-25.078,25.078l44.532,44.532L308.527,248.005z"/>
<path style="fill:#B54324;" d="M300.032,211.394l-39.134,39.134l22.554,22.554l25.078-25.078c7.763-7.763,7.763-20.351,0-28.113
	L300.032,211.394z"/>
<circle style="fill:#808183;" cx="322.577" cy="189.423" r="62.978"/>
<path style="fill:#59595B;" d="M367.116,144.884c-0.097-0.097-0.198-0.184-0.295-0.279l-89.05,89.05
	c0.095,0.097,0.184,0.198,0.279,0.295c24.595,24.595,64.471,24.595,89.064,0C391.711,209.353,391.711,169.477,367.116,144.884z"/>
<rect x="253.206" y="178.639" transform="matrix(-0.7071 -0.7071 0.7071 -0.7071 415.1246 552.1286)" style="fill:#353333;" width="137.411" height="22.9"/>
<rect x="311.496" y="202.767" transform="matrix(-0.7071 -0.7071 0.7071 -0.7071 439.273 610.3863)" style="fill:#272525;" width="69.111" height="22.9"/>
<rect x="203.624" y="285.48" transform="matrix(-0.7071 -0.7071 0.7071 -0.7071 147.9777 662.7888)" style="fill:#71E2EF;" width="15.267" height="30.535"/>
<rect x="209.794" y="288.052" transform="matrix(0.7071 0.7071 -0.7071 0.7071 277.1043 -62.3488)" style="fill:#38C6D9;" width="8.04" height="30.535"/>
<g>
</g>
<g>
</g>
<g>
</g>
<g>
</g>
<g>
</g>
<g>
</g>
<g>
</g>
<g>
</g>
<g>
</g>
<g>
</g>
<g>
</g>
<g>
</g>
<g>
</g>
<g>
</g>
<g>
</g>
</svg>
