<?xml version="1.0" encoding="iso-8859-1"?>
<!-- Generator: Adobe Illustrator 19.0.0, SVG Export Plug-In . SVG Version: 6.00 Build 0)  -->
<svg version="1.1" id="Layer_1" xmlns="http://www.w3.org/2000/svg" xmlns:xlink="http://www.w3.org/1999/xlink" x="0px" y="0px"
	 viewBox="0 0 512 512" style="enable-background:new 0 0 512 512;" xml:space="preserve">
<circle style="fill:#273B7A;" cx="256" cy="256" r="256"/>
<path style="fill:#121149;" d="M207.812,203.059l46.466,46.466l-7.759,158.179l91.027,91.027
	c77.808-26.129,138.918-88.619,163.145-167.279L310.734,141.495l-30.144,34.859l-32.289-32.289L207.812,203.059z"/>
<polygon style="fill:#FFEDB5;" points="312.889,350.815 312.889,331.852 265.481,331.852 265.481,199.111 246.519,199.111 
	246.519,407.704 312.889,407.704 312.889,388.741 265.481,388.741 265.481,350.815 "/>
<polygon style="fill:#FEE187;" points="312.889,350.815 312.889,331.852 265.481,331.852 265.481,199.111 255.426,199.111 
	255.426,407.704 312.889,407.704 312.889,388.741 265.481,388.741 265.481,350.815 "/>
<path style="fill:#FF6262;" d="M191.354,164.992c0-22.364,14.472-32.323,32.323-32.323S256,147.141,256,164.992
	c0-17.851,14.472-32.323,32.323-32.323c17.851,0,32.323,13.877,32.323,32.323c0,45.22-64.646,70.034-64.646,70.034
	S191.354,210.539,191.354,164.992z"/>
<path style="fill:#FF314F;" d="M256,164.992c0-17.851,14.472-32.323,32.323-32.323c17.851,0,32.323,13.877,32.323,32.323
	c0,45.22-64.646,70.034-64.646,70.034V164.992z"/>
<g>
</g>
<g>
</g>
<g>
</g>
<g>
</g>
<g>
</g>
<g>
</g>
<g>
</g>
<g>
</g>
<g>
</g>
<g>
</g>
<g>
</g>
<g>
</g>
<g>
</g>
<g>
</g>
<g>
</g>
</svg>
