<?xml version="1.0" encoding="iso-8859-1"?>
<!-- Generator: Adobe Illustrator 19.0.0, SVG Export Plug-In . SVG Version: 6.00 Build 0)  -->
<svg version="1.1" id="Layer_1" xmlns="http://www.w3.org/2000/svg" xmlns:xlink="http://www.w3.org/1999/xlink" x="0px" y="0px"
	 viewBox="0 0 512 512" style="enable-background:new 0 0 512 512;" xml:space="preserve">
<circle style="fill:#FFEDB5;" cx="256" cy="256" r="256"/>
<path style="fill:#FEE187;" d="M323.824,502.9c86.916-23.823,155.353-92.3,179.121-179.24l-65.934-68.872l-29.377,14.429
	l-11.455-2.332l-288.306,20.065L323.824,502.9z"/>
<path style="fill:#FF314F;" d="M74.99,254.788c0,0,27.731,22.856,90.505-30.168s90.505,0,90.505,0s27.731-53.024,90.505,0
	s90.505,30.168,90.505,30.168S273.675,471.147,74.99,254.788z"/>
<g>
	<path style="fill:#A30F44;" d="M346.505,224.62c-62.748-53.001-90.483-0.043-90.505,0v126.316
		c107.894,0.69,181.01-96.147,181.01-96.147S409.279,277.642,346.505,224.62z"/>
	<path style="fill:#A30F44;" d="M424.846,259.232c-172.584,61.087-308.164,13.272-341.785-0.838c-5.448-1.452-8.07-3.608-8.07-3.608
		c198.685,216.359,362.02,0,362.02,0S433.085,258.02,424.846,259.232z"/>
</g>
<path style="fill:#7F0034;" d="M437.01,254.788L437.01,254.788c-0.003,0.003-3.908,3.219-12.098,4.437
	c-62.102,21.99-119.41,29.87-168.912,30.296v61.414l0,0C363.891,351.623,437.005,254.797,437.01,254.788z"/>
<g>
</g>
<g>
</g>
<g>
</g>
<g>
</g>
<g>
</g>
<g>
</g>
<g>
</g>
<g>
</g>
<g>
</g>
<g>
</g>
<g>
</g>
<g>
</g>
<g>
</g>
<g>
</g>
<g>
</g>
</svg>
