<?xml version="1.0" encoding="iso-8859-1"?>
<!-- Generator: Adobe Illustrator 19.0.0, SVG Export Plug-In . SVG Version: 6.00 Build 0)  -->
<svg version="1.1" id="Layer_1" xmlns="http://www.w3.org/2000/svg" xmlns:xlink="http://www.w3.org/1999/xlink" x="0px" y="0px"
	 viewBox="0 0 512 512" style="enable-background:new 0 0 512 512;" xml:space="preserve">
<circle style="fill:#386895;" cx="256" cy="256" r="256"/>
<path style="fill:#273B7A;" d="M269.496,511.647c118.063-6.134,214.952-92.257,237.523-205.209L314.384,113.109l-84.227-13.624
	l-51.014,50.891v111.514l2.862,45.923l-32.897,83.74L269.496,511.647z"/>
<path style="fill:#FFEDB5;" d="M337.886,269.36h-18.963V168.8c0-32.478-26.422-58.901-58.901-58.901h-8.044
	c-32.478,0-58.901,26.422-58.901,58.901V269.36h-18.963V168.8c0-42.934,34.93-77.864,77.864-77.864h8.044
	c42.934,0,77.864,34.93,77.864,77.864V269.36z"/>
<path style="fill:#FEE187;" d="M260.022,90.936H256v18.963h4.022c32.478,0,58.901,26.422,58.901,58.901V269.36h18.963V168.8
	C337.886,125.866,302.956,90.936,260.022,90.936z"/>
<path style="fill:#FFC61B;" d="M346.648,398.222H165.35c-12.774,0-23.128-10.355-23.128-23.13V250.684
	c0-12.774,10.356-23.13,23.128-23.13h181.298c12.774,0,23.13,10.356,23.13,23.13v124.409
	C369.778,387.867,359.422,398.222,346.648,398.222z"/>
<path style="fill:#EAA22F;" d="M346.648,227.556H256v170.667h90.648c12.774,0,23.13-10.355,23.13-23.13V250.684
	C369.778,237.911,359.422,227.556,346.648,227.556z"/>
<path style="fill:#FF314F;" d="M203.421,294.709c0-18.191,11.771-26.29,26.29-26.29c14.519,0,26.29,11.771,26.29,26.29
	c0-14.519,11.771-26.29,26.29-26.29s26.29,11.286,26.29,26.29c0,36.78-52.579,56.961-52.579,56.961S203.421,331.754,203.421,294.709
	z"/>
<path style="fill:#A30F44;" d="M308.579,294.709c0-15.003-11.771-26.29-26.29-26.29c-14.515,0-26.283,11.764-26.29,26.279v56.972
	C256.012,351.665,308.579,331.483,308.579,294.709z"/>
<g>
</g>
<g>
</g>
<g>
</g>
<g>
</g>
<g>
</g>
<g>
</g>
<g>
</g>
<g>
</g>
<g>
</g>
<g>
</g>
<g>
</g>
<g>
</g>
<g>
</g>
<g>
</g>
<g>
</g>
</svg>
