<?xml version="1.0" encoding="iso-8859-1"?>
<!-- Generator: Adobe Illustrator 19.0.0, SVG Export Plug-In . SVG Version: 6.00 Build 0)  -->
<svg version="1.1" id="Layer_1" xmlns="http://www.w3.org/2000/svg" xmlns:xlink="http://www.w3.org/1999/xlink" x="0px" y="0px"
	 viewBox="0 0 512 512" style="enable-background:new 0 0 512 512;" xml:space="preserve">
<circle style="fill:#FFC61B;" cx="256" cy="256" r="256"/>
<path style="fill:#EAA22F;" d="M194.841,170.711l37.002,37.002l-5.422,3.193l-27.31-27.31l-27.079,24.207l94.799,94.799
	l-143.896,84.751l124.488,124.488c2.848,0.093,5.704,0.159,8.576,0.159c125.985,0,230.712-91.007,252.032-210.866L317.252,110.356
	L194.841,170.711z"/>
<g>
	<rect x="142.222" y="183.596" style="fill:#273B7A;" width="56.889" height="28.444"/>
	<rect x="216.35" y="149.98" style="fill:#273B7A;" width="79.3" height="56.889"/>
</g>
<rect x="256" y="149.98" style="fill:#121149;" width="39.65" height="56.889"/>
<path style="fill:#386895;" d="M366.258,396.929H145.741c-17.653,0-31.965-14.31-31.965-31.965V229.781
	c0-17.653,14.31-31.965,31.965-31.965h220.517c17.653,0,31.965,14.31,31.965,31.965v135.183
	C398.222,382.619,383.912,396.929,366.258,396.929z"/>
<path style="fill:#29577C;" d="M366.258,197.818H256v199.111h110.258c17.653,0,31.965-14.31,31.965-31.965V229.781
	C398.222,212.128,383.912,197.818,366.258,197.818z"/>
<rect x="113.778" y="268.929" style="fill:#02B2B2;" width="284.444" height="85.333"/>
<rect x="256" y="268.929" style="fill:#049B97;" width="142.222" height="85.333"/>
<circle style="fill:#273B7A;" cx="299.098" cy="297.374" r="85.333"/>
<path style="fill:#121149;" d="M299.098,212.04c47.128,0,85.333,38.205,85.333,85.333s-38.205,85.333-85.333,85.333V212.04z"/>
<circle style="fill:#71E2EF;" cx="299.098" cy="297.374" r="58.613"/>
<path style="fill:#38C6D9;" d="M299.098,238.761c32.372,0,58.613,26.241,58.613,58.613s-26.241,58.613-58.613,58.613V238.761z"/>
<path style="fill:#386895;" d="M307.359,174.114H204.641c-8.768,0-15.874-7.108-15.874-15.874v-35.485
	c0-8.768,7.108-15.874,15.874-15.874h102.717c8.768,0,15.874,7.108,15.874,15.874v35.485
	C323.232,167.007,316.125,174.114,307.359,174.114z"/>
<path style="fill:#273B7A;" d="M307.359,106.882H256v67.232h51.359c8.768,0,15.874-7.108,15.874-15.874v-35.485
	C323.232,113.99,316.125,106.882,307.359,106.882z"/>
<path style="fill:#FFEDB5;" d="M302.483,163.928h-92.965c-4.708,0-8.525-3.817-8.525-8.525v-29.808c0-4.708,3.817-8.525,8.525-8.525
	h92.965c4.708,0,8.525,3.817,8.525,8.525v29.808C311.008,160.111,307.191,163.928,302.483,163.928z"/>
<path style="fill:#FEE187;" d="M302.483,117.069H256v46.859h46.482c4.708,0,8.525-3.817,8.525-8.525v-29.81
	C311.008,120.885,307.191,117.069,302.483,117.069z"/>
<g>
</g>
<g>
</g>
<g>
</g>
<g>
</g>
<g>
</g>
<g>
</g>
<g>
</g>
<g>
</g>
<g>
</g>
<g>
</g>
<g>
</g>
<g>
</g>
<g>
</g>
<g>
</g>
<g>
</g>
</svg>
