<?xml version="1.0" encoding="iso-8859-1"?>
<!-- Generator: Adobe Illustrator 19.0.0, SVG Export Plug-In . SVG Version: 6.00 Build 0)  -->
<svg version="1.1" id="Layer_1" xmlns="http://www.w3.org/2000/svg" xmlns:xlink="http://www.w3.org/1999/xlink" x="0px" y="0px"
	 viewBox="0 0 512 512" style="enable-background:new 0 0 512 512;" xml:space="preserve">
<circle style="fill:#D35933;" cx="256" cy="256" r="256"/>
<path style="fill:#B54324;" d="M509.497,291.795L333.812,116.11l-8.682,90.945L256,398.222l95.396,95.396
	C434.909,460.06,496.628,383.762,509.497,291.795z"/>
<path style="fill:#FFEDB5;" d="M142.222,199.111c0-62.838,50.94-113.778,113.778-113.778s113.778,50.94,113.778,113.778
	S256,398.222,256,398.222S142.222,261.949,142.222,199.111z"/>
<path style="fill:#FEE187;" d="M256,85.333c62.838,0,113.778,50.94,113.778,113.778S256,398.222,256,398.222V85.333z"/>
<path style="fill:#FF314F;" d="M194.801,182.196c0-21.173,13.7-30.599,30.599-30.599S256,165.297,256,182.196
	c0-16.899,13.7-30.599,30.599-30.599c16.899,0,30.599,13.136,30.599,30.599c0,42.808-61.199,66.298-61.199,66.298
	S194.801,225.313,194.801,182.196z"/>
<path style="fill:#A30F44;" d="M256,182.196c0-16.899,13.7-30.599,30.599-30.599c16.899,0,30.599,13.136,30.599,30.599
	c0,42.808-61.199,66.298-61.199,66.298V182.196z"/>
<g>
</g>
<g>
</g>
<g>
</g>
<g>
</g>
<g>
</g>
<g>
</g>
<g>
</g>
<g>
</g>
<g>
</g>
<g>
</g>
<g>
</g>
<g>
</g>
<g>
</g>
<g>
</g>
<g>
</g>
</svg>
