<?xml version="1.0" encoding="iso-8859-1"?>
<!-- Generator: Adobe Illustrator 19.0.0, SVG Export Plug-In . SVG Version: 6.00 Build 0)  -->
<svg version="1.1" id="Layer_1" xmlns="http://www.w3.org/2000/svg" xmlns:xlink="http://www.w3.org/1999/xlink" x="0px" y="0px"
	 viewBox="0 0 512 512" style="enable-background:new 0 0 512 512;" xml:space="preserve">
<circle style="fill:#FFEDB5;" cx="256" cy="256" r="256"/>
<path style="fill:#FEE187;" d="M316.992,504.67C409,482.178,481.495,409.971,504.392,318.123L339.822,153.552l-0.695,1.938
	l-20.563-20.563l-126.94,107.042l61.759,61.759v41.486l-40.251,38.343l39.974,39.796l-5.639,11.848L316.992,504.67z"/>
<path style="fill:#FF6262;" d="M295.327,170.356c-6.427-34.282-39.322-51.059-39.322-51.059s-32.896,16.777-39.322,51.059
	l37.609,20.166L295.327,170.356z"/>
<path style="fill:#FF314F;" d="M254.292,190.521l41.036-20.166c-6.427-34.282-39.322-51.059-39.322-51.059L254.292,190.521z"/>
<path style="fill:#477F3C;" d="M256,326.558l-71.664-23.888c0,0-4.586,95.191,71.664,95.553V326.558z"/>
<path style="fill:#2E5E24;" d="M255.936,304.926l61.447-20.482c0,0,3.931,81.617-61.445,81.927L255.936,304.926z"/>
<path style="fill:#FF314F;" d="M318.566,134.927c-51.671,10.705-62.018,44.999-62.597,47.066
	c-0.579-2.069-10.926-36.362-62.597-47.066c0,0-18.153,82.253,62.569,83.294v0.002c0.009,0,0.019,0,0.028,0c0.009,0,0.017,0,0.028,0
	v-0.002C336.718,217.178,318.566,134.927,318.566,134.927z"/>
<path style="fill:#A30F44;" d="M255.941,218.221v-36.128c0,0,9.338-36.128,62.624-47.166
	C318.566,134.927,336.727,217.217,255.941,218.221z"/>
<path style="fill:#6CAF5F;" d="M256,438.734c-6.665,0-12.067-5.403-12.067-12.067V256c0-6.665,5.403-12.067,12.067-12.067
	c6.665,0,12.067,5.403,12.067,12.067v170.667C268.067,433.331,262.665,438.734,256,438.734z"/>
<path style="fill:#477F3C;" d="M256,243.933c-0.388,0-0.771,0.022-1.148,0.059v194.686c0.379,0.036,0.76,0.059,1.148,0.059
	c6.665,0,12.067-5.403,12.067-12.067V256.002C268.067,249.335,262.665,243.933,256,243.933z"/>
<path style="fill:#A30F44;" d="M339.823,153.552c-69.22,14.339-83.078,60.28-83.854,63.05c-0.776-2.77-14.636-48.711-83.854-63.05
	c0,0-24.317,110.187,83.818,111.58v0.002c0.012,0,0.024-0.002,0.036-0.002c0.012,0,0.024,0.002,0.036,0.002v-0.002
	C364.141,263.737,339.823,153.552,339.823,153.552z"/>
<path style="fill:#890B3E;" d="M255.931,265.133v-48.397c0,0,12.51-48.397,83.892-63.185
	C339.823,153.552,364.153,263.789,255.931,265.133z"/>
<g>
</g>
<g>
</g>
<g>
</g>
<g>
</g>
<g>
</g>
<g>
</g>
<g>
</g>
<g>
</g>
<g>
</g>
<g>
</g>
<g>
</g>
<g>
</g>
<g>
</g>
<g>
</g>
<g>
</g>
</svg>
