<?xml version="1.0" encoding="iso-8859-1"?>
<!-- Generator: Adobe Illustrator 19.0.0, SVG Export Plug-In . SVG Version: 6.00 Build 0)  -->
<svg version="1.1" id="Layer_1" xmlns="http://www.w3.org/2000/svg" xmlns:xlink="http://www.w3.org/1999/xlink" x="0px" y="0px"
	 viewBox="0 0 512 512" style="enable-background:new 0 0 512 512;" xml:space="preserve">
<circle style="fill:#FEE187;" cx="256" cy="256" r="256"/>
<path style="fill:#FFC61B;" d="M120.261,363.217l148.642,148.459c122.406-6.077,222.18-98.125,240.192-217.01L390.782,176.352
	l-38.447,11.038l-45.766-45.766l-9.088,3.47h-89.46v35.628l86.814,3.062l-22.168,31.13l-24.411,32.328L120.261,363.217z"/>
<path style="fill:#273B7A;" d="M289.294,206.869h-66.589c-13.484,0-24.457-10.971-24.457-24.457v-23.49
	c0.002-13.486,10.973-24.457,24.457-24.457h66.589c13.486,0,24.457,10.971,24.457,24.457v23.492
	C313.751,195.898,302.78,206.869,289.294,206.869z M222.704,149.98c-4.929,0-8.942,4.012-8.942,8.942v23.492
	c0,4.929,4.012,8.942,8.942,8.942h66.589c4.929,0,8.942-4.012,8.942-8.942v-23.492c0-4.929-4.012-8.942-8.942-8.942H222.704z"/>
<path style="fill:#121149;" d="M289.294,134.465h-33.868v15.515h33.868c4.929,0,8.942,4.012,8.942,8.942v23.492
	c0,4.929-4.012,8.942-8.942,8.942h-33.868v15.515h33.868c13.484,0,24.457-10.971,24.457-24.457v-23.492
	C313.751,145.436,302.78,134.465,289.294,134.465z"/>
<path style="fill:#D35933;" d="M375.954,369.778H136.044c-12.297,0-22.266-9.969-22.266-22.268V192.933
	c0-12.297,9.969-22.266,22.266-22.266h239.911c12.298,0,22.268,9.969,22.268,22.266V347.51
	C398.222,359.808,388.253,369.778,375.954,369.778z"/>
<path style="fill:#B54324;" d="M375.954,170.667h-120.53v199.111h120.53c12.298,0,22.268-9.969,22.268-22.268V192.933
	C398.222,180.636,388.253,170.667,375.954,170.667z"/>
<rect x="156.444" y="170.667" style="fill:#FF7F4F;" width="28.444" height="199.111"/>
<rect x="327.111" y="170.667" style="fill:#D35933;" width="28.444" height="199.111"/>
<rect x="286.626" y="204.275" transform="matrix(-0.9816 0.1908 -0.1908 -0.9816 666.0409 372.8626)" style="fill:#386895;" width="56.887" height="28.444"/>
<rect x="168.475" y="307.718" transform="matrix(-0.9849 -0.1731 0.1731 -0.9849 335.1379 673.1084)" style="fill:#930000;" width="56.889" height="28.446"/>
<g>
</g>
<g>
</g>
<g>
</g>
<g>
</g>
<g>
</g>
<g>
</g>
<g>
</g>
<g>
</g>
<g>
</g>
<g>
</g>
<g>
</g>
<g>
</g>
<g>
</g>
<g>
</g>
<g>
</g>
</svg>
