<?xml version="1.0" encoding="iso-8859-1"?>
<!-- Generator: Adobe Illustrator 19.0.0, SVG Export Plug-In . SVG Version: 6.00 Build 0)  -->
<svg version="1.1" id="Layer_1" xmlns="http://www.w3.org/2000/svg" xmlns:xlink="http://www.w3.org/1999/xlink" x="0px" y="0px"
	 viewBox="0 0 512.003 512.003" style="enable-background:new 0 0 512.003 512.003;" xml:space="preserve">
<circle style="fill:#386895;" cx="256.002" cy="256" r="256"/>
<path style="fill:#273B7A;" d="M502.663,324.701L332.545,154.583l-76.54-45.97l-99.99,100.268l-4.668,7.039l-5.356,10.455
	l-8.113,31.889l-0.964,3.088l-14.969,15.438l19.939,19.349l-7.128,106.325l111.64,109.342c3.189,0.117,6.387,0.198,9.604,0.198
	C373.586,512,472.641,432.719,502.663,324.701z"/>
<g>
	<path style="fill:#FFFFFF;" d="M256.002,108.287c0,0-0.078,124.73-123.259,153.203
		C132.742,261.491,142.724,138.309,256.002,108.287z"/>
	<path style="fill:#FFFFFF;" d="M134.758,251.761c0,0,52.364,69.413,60.28,150.699h-60.28
		C134.758,402.461,124.406,299.863,134.758,251.761z"/>
</g>
<path style="fill:#FF314F;" d="M116.581,261.118c0-2.505,5.829-4.058,6.563-6.32c0.76-2.343-3.015-7.021-1.595-8.971
	c1.434-1.97,7.058,0.183,9.028-1.25c1.95-1.419,1.633-7.44,3.975-8.202c2.26-0.734,5.534,4.301,8.039,4.301
	c2.505,0,5.779-5.034,8.039-4.301c2.343,0.76,2.026,6.782,3.975,8.202c1.97,1.434,7.594-0.719,9.028,1.25
	c1.419,1.95-2.357,6.628-1.595,8.971c0.734,2.26,6.563,3.815,6.563,6.32c0,2.505-5.829,4.058-6.563,6.32
	c-0.76,2.343,3.015,7.021,1.595,8.971c-1.434,1.97-7.058-0.183-9.028,1.25c-1.95,1.419-1.633,7.44-3.975,8.202
	c-2.262,0.734-5.534-4.301-8.039-4.301c-2.505,0-5.779,5.034-8.039,4.301c-2.343-0.76-2.026-6.782-3.975-8.202
	c-1.97-1.434-7.594,0.719-9.028-1.25c-1.419-1.95,2.357-6.628,1.595-8.971C122.408,265.176,116.581,263.623,116.581,261.118z"/>
<circle style="fill:#FFC61B;" cx="142.586" cy="261.12" r="7.742"/>
<g>
	<path style="fill:#D0D1D3;" d="M256.002,108.287c0,0,0.078,124.73,123.259,153.203C379.261,261.491,369.28,138.309,256.002,108.287
		z"/>
	<path style="fill:#D0D1D3;" d="M377.246,251.761c0,0-52.364,69.413-60.28,150.699h60.28
		C377.246,402.461,387.598,299.863,377.246,251.761z"/>
</g>
<path style="fill:#A30F44;" d="M395.423,261.118c0-2.505-5.829-4.058-6.563-6.32c-0.76-2.343,3.015-7.021,1.595-8.971
	c-1.434-1.97-7.058,0.183-9.028-1.25c-1.95-1.419-1.633-7.44-3.975-8.202c-2.26-0.734-5.534,4.301-8.039,4.301
	s-5.779-5.034-8.039-4.301c-2.343,0.76-2.026,6.782-3.975,8.202c-1.97,1.434-7.594-0.719-9.028,1.25
	c-1.419,1.95,2.357,6.628,1.595,8.971c-0.734,2.262-6.563,3.815-6.563,6.32c0,2.505,5.829,4.058,6.563,6.32
	c0.76,2.343-3.015,7.021-1.595,8.971c1.434,1.97,7.058-0.183,9.028,1.25c1.95,1.419,1.633,7.44,3.975,8.202
	c2.262,0.734,5.534-4.301,8.039-4.301c2.505,0,5.779,5.034,8.039,4.301c2.343-0.76,2.026-6.782,3.975-8.202
	c1.97-1.434,7.594,0.719,9.028-1.25c1.419-1.95-2.357-6.628-1.595-8.971C389.594,265.176,395.423,263.623,395.423,261.118z"/>
<circle style="fill:#EAA22F;" cx="369.417" cy="261.12" r="7.742"/>
<g>
</g>
<g>
</g>
<g>
</g>
<g>
</g>
<g>
</g>
<g>
</g>
<g>
</g>
<g>
</g>
<g>
</g>
<g>
</g>
<g>
</g>
<g>
</g>
<g>
</g>
<g>
</g>
<g>
</g>
</svg>
