<?xml version="1.0" encoding="iso-8859-1"?>
<!-- Generator: Adobe Illustrator 19.0.0, SVG Export Plug-In . SVG Version: 6.00 Build 0)  -->
<svg version="1.1" id="Layer_1" xmlns="http://www.w3.org/2000/svg" xmlns:xlink="http://www.w3.org/1999/xlink" x="0px" y="0px"
	 viewBox="0 0 512 512" style="enable-background:new 0 0 512 512;" xml:space="preserve">
<circle style="fill:#FF314F;" cx="256" cy="256" r="256"/>
<path style="fill:#A30F44;" d="M510.581,283.026L398.222,170.667l-54.768,26.183l-5.28,4.561L113.778,369.778L256,512l0,0
	C388.256,512,497.078,411.707,510.581,283.026z"/>
<rect x="113.778" y="170.667" style="fill:#FFC61B;" width="284.444" height="199.111"/>
<rect x="255.431" y="170.667" style="fill:#EAA22F;" width="142.791" height="199.111"/>
<polygon style="fill:#FFEDB5;" points="398.222,369.778 256,256 113.778,369.778 "/>
<g>
	<polygon style="fill:#FEE187;" points="256,256 255.426,256.459 255.426,369.778 398.222,369.778 	"/>
	<polygon style="fill:#FEE187;" points="113.778,170.667 256,284.444 398.222,170.667 	"/>
</g>
<polygon style="fill:#FFC61B;" points="398.222,170.667 255.426,170.667 255.426,283.986 256,284.444 "/>
<path style="fill:#FF314F;" d="M223.246,259.627c0-11.331,7.332-16.377,16.377-16.377c9.045,0,16.377,7.332,16.377,16.377
	c0-9.045,7.332-16.377,16.377-16.377s16.377,7.03,16.377,16.377c0,22.911-32.754,35.483-32.754,35.483
	S223.246,282.705,223.246,259.627z"/>
<path style="fill:#A30F44;" d="M272.377,243.25c-9.045,0-16.377,7.332-16.377,16.377c0-1.469-0.212-2.884-0.574-4.239v39.493
	c0.359,0.147,0.574,0.229,0.574,0.229s32.754-12.572,32.754-35.483C288.754,250.28,281.421,243.25,272.377,243.25z"/>
<g>
</g>
<g>
</g>
<g>
</g>
<g>
</g>
<g>
</g>
<g>
</g>
<g>
</g>
<g>
</g>
<g>
</g>
<g>
</g>
<g>
</g>
<g>
</g>
<g>
</g>
<g>
</g>
<g>
</g>
</svg>
